<?xml version="1.0" encoding="utf-8"?>
<!-- Generator: Adobe Illustrator 17.0.0, SVG Export Plug-In . SVG Version: 6.00 Build 0)  -->
<!DOCTYPE svg PUBLIC "-//W3C//DTD SVG 1.1//EN" "http://www.w3.org/Graphics/SVG/1.1/DTD/svg11.dtd">
<svg version="1.1" id="图形" xmlns="http://www.w3.org/2000/svg" xmlns:xlink="http://www.w3.org/1999/xlink" x="0px" y="0px"
	 width="1000.636px" height="1000.678px" viewBox="15.167 -16.333 1000.636 1000.678"
	 enable-background="new 15.167 -16.333 1000.636 1000.678" xml:space="preserve">
<g>
	<path fill="#FFFFFF" d="M648.401,150.147c14.73-0.191,38.477,35.408,42.225,63.115c2.951,21.813,4.249,43.85,7.224,65.658
		c1.975,14.476,10.104,20.837,24.86,20.351c13.019-0.429,24.835,0.956,33.967,11.729c8.227,9.705,8.522,18.83,1.046,29.172
		c-13.547,18.739-32.465,24.621-54.518,24.592c-11.93-0.016-17.207,4.884-18.097,16.804c-0.853,11.423-1.061,23.023-0.09,34.42
		c1.255,14.734,17.264,26.521,31.836,23.691c10.04-1.949,19.786-5.42,29.655-8.241c3.763-1.076,7.454-2.434,11.258-3.325
		c12.368-2.899,20.129,2.735,21.143,15.443c0.37,4.637,1.015,9.533-0.053,13.926c-1.064,4.378-3.063,10.06-6.479,12.076
		c-16.353,9.652-32.411,19.543-52.154,22.458c-30.587,4.517-48.903,34.066-39.689,61.218c4.475,13.187,11.821,18.543,25.77,18.488
		c9.026-0.035,18.082-0.892,27.069-0.392c12.737,0.709,23.115,7.224,32.961,14.89c17.392,13.542,31.949,29.703,44.927,47.394
		c3.773,5.144,7.54,10.294,11.269,15.47c17.578,24.395,7.86,51.119-21.641,57.562c-22.989,5.021-45.925,4.198-64.75-11.947
		c-9.475-8.126-16.933-18.798-24.437-28.958c-5.076-6.872-9.936-13.245-18.563-15.774c-12.158-3.565-20.585,1.642-21.625,14.332
		c-1.3,15.866-1.806,31.796-2.986,47.673c-1.233,16.592-2.552,33.189-4.412,49.719c-1.41,12.531-5.128,14.635-17.55,15.463
		c-28.351,1.891-45.386-13.27-55.497-37.262c-7.389-17.534-12.435-36.055-18.548-54.129c-0.627-1.854-1.33-3.692-2.142-5.471
		c-5.476-12-17.003-16.121-27.903-8.66c-18.409,12.601-36.21,26.093-54.234,39.256c-28.308,20.672-55.629,42.83-87.525,58.089
		c-4.502,2.154-9.055,6.128-14.08,1.376c-5.03-4.757-5.85-9.993-3.995-17.207c4.47-17.383,14.667-30.194,27.133-42.565
		c39.187-38.89,78.081-78.106,116.033-118.195c13.051-13.786,23.286-30.309,34.244-45.976c6.202-8.867,2.904-16.266-7.637-19.521
		c-31.751-9.804-71.764,4.472-90.619,31.85c-7.293,10.59-7.887,22.94-11.033,34.684c-6.073,22.672-12.293,45.323-19.38,67.688
		c-1.269,4.004-6.511,8.351-10.763,9.552c-32.258,9.112-64.759,17.005-98.382,19.853c-9.377,0.794-18.871,4.856-27.452,9.141
		c-9.146,4.568-17.267,11.184-25.845,16.892c-17.255,11.483-36.008,13.065-55.662,8.272c-12.449-3.036-21.328-11.014-25.048-22.797
		c-8.165-25.861-17.04-51.883-17.904-79.196c-1.728-54.654-2.361-109.349-2.894-164.032c-0.157-16.094-4.036-30.789-10.571-45.321
		c-22.226-49.425,7.117-102.153,58.2-112.628c25.733-5.277,48.125,0.144,66.426,19.669c11.734,12.519,23.038,25.483,35.379,37.371
		c5.781,5.568,13.008,10.937,20.533,13.147c22.505,6.608,45.458,11.706,68.279,17.214c22.578,5.45,39.486,24.693,42.281,48.205
		c0.692,5.821,1.631,11.65,2.997,17.346c2.122,8.852,8.282,12.884,17.27,12.394c22.019-1.2,44.043-2.326,66.073-3.286
		c15.187-0.662,27.137-6.331,33.369-20.955c4.78-11.217,10.292-22.279,13.56-33.948c4.826-17.232-1.137-32.513-17.362-40.228
		c-15.077-7.169-31.483-11.976-47.735-16.14c-23.826-6.105-47.16-13.095-68.656-25.329c-10.848-6.174-12.18-13.334-3.656-22.393
		c11.26-11.968,26.196-16.425,41.746-17.569c24.663-1.815,49.42-2.514,74.15-3.188c18.557-0.506,25.305-7.344,25.819-26.025
		c0.551-20.051,0.962-40.187,3.214-60.084c1.706-15.076,10.014-28.082,19.137-40.04c2.628-3.444,6.932-4.002,10.737-4.73
		c6.389-1.223,12.965-1.472,19.462-2.131C641.719,150.115,637.492,149.785,648.401,150.147z M302.83,487.829
		c0,11.758-0.077,23.517,0.021,35.275c0.101,12.014,0.142,24.035,0.623,36.037c0.785,19.579,1.78,39.151,2.929,58.713
		c0.819,13.94,8.201,22.055,21.624,23.204c11.124,0.952,22.333,1.441,33.494,1.296c14.389-0.186,22.359-7.311,25.504-21.514
		c0.686-3.1,1.71-6.168,2.009-9.305c1.595-16.75,4.323-33.532,4.129-50.273c-0.209-18.032-3.483-36.01-4.932-54.05
		c-1.676-20.876-7.219-40.421-18.382-58.235c-6.433-10.266-15.536-16.579-27.86-16.175c-7.262,0.238-14.562,1.843-21.677,3.538
		c-13.421,3.198-18.621,10.361-18.528,24.248"/>
</g>
</svg>
