<?xml version="1.0" encoding="utf-8"?>
<!-- Generator: Adobe Illustrator 17.0.0, SVG Export Plug-In . SVG Version: 6.00 Build 0)  -->
<!DOCTYPE svg PUBLIC "-//W3C//DTD SVG 1.1//EN" "http://www.w3.org/Graphics/SVG/1.1/DTD/svg11.dtd">
<svg version="1.1" id="图形" xmlns="http://www.w3.org/2000/svg" xmlns:xlink="http://www.w3.org/1999/xlink" x="0px" y="0px"
	 width="1000.636px" height="1000.678px" viewBox="15.167 -16.333 1000.636 1000.678"
	 enable-background="new 15.167 -16.333 1000.636 1000.678" xml:space="preserve">
<g>
	<g>
		<path fill="#F47A70" d="M427.058,201.274c1.502,1.275-4.957-53.493-2.339-77.177c2.642-23.68,11.7-25.134,18.424-28.349
			c6.719-3.206,10.516,3.215,10.516,3.215s3.119-4.197,8.961,1.848c0,0,9.155-13.245,32.555-12.668
			c23.382,0.583,49.694,8.769,53.973,14.227c4.293,5.463,4.495,9.746,4.495,9.746s11.109,18.694,10.907,30.015
			c-0.197,11.295-3.701,16.955-0.987,23.767c2.739,6.825,7.027,17.735,4.294,19.497c-2.724,1.752-10.912-0.588-8.577,4.678
			c2.344,5.265,3.503,7.595,1.371,8.572c-2.151,0.977-5.068,0.977-2.151,3.109c2.94,2.151,2.344,2.151,0,3.903
			c-2.335,1.757-6.031,3.128-4.862,8.385c1.166,5.26-2.536,16.758-12.277,14.809c-9.747-1.949-30.409-1.357-30.409-1.357
			s-1.169,6.227-2.33,8.181c-1.169,1.949-0.987,3.504,1.358,6.036c2.339,2.527,8.774,8.191,12.278,8.774
			c3.508,0.578,5.651,2.921,5.651,2.921s18.525-12.668,31.183-13.255c12.668-0.582,32.931-2.921,43.856-6.815
			c10.907-3.908,52.808-16.177,64.889-23.978c12.076-7.787,33.715-15.97,46.185-15.782c12.472,0.193,62.17-5.651,71.715-8.379
			c9.553-2.729,23.189-4.688,31.761-6.628c8.577-1.954,36.641-14.035,46.185-14.035c9.559,0,55.744-3.898,55.744,3.514
			c0,7.406-10.477,4.577-16.748,4.577c-6.291,0-13.02,1.896-16.085,1.896c-3.07,0-7.162,2.189-1.603,2.339
			c5.559,0.149,16.518,2.339,25.731,4.38c9.203,2.04,12.268,4.678,11.69,7.315c-0.587,2.633-6.429,3.219-13.452,1.161
			c-7.012-2.042-14.91-2.484-19.141-2.484c-4.235,0-11.69,1.179-5.26,1.608c6.429,0.442,22.067,4.543,27.761,4.828
			c5.704,0.298,7.461,2.488,7.161,5.26c-0.293,2.782-9.062,2.782-14.612,1.464c-5.559-1.32-14.617-1.174-18.419-1.174
			c-3.807,0-9.791-1.454-10.238,0.154c-0.432,1.602,3.802,4.528,9.94,6.863c6.146,2.348,16.955,3.947,15.93,7.007
			c-1.015,3.085-14.896,2.196-21.913-0.283c-7.017-2.494-13.159-3.514-19.733-3.369c-6.589,0.163-20.466,2.776-25.885,0.875
			c-5.405-1.882-10.516-2.488-27.766,6.869c-17.25,9.37-58.469,22.808-69.867,24.267c-11.392,1.463-48.51,9.66-53.78,12.865
			c-5.265,3.216-45.314,30.404-54.959,37.706c-9.651,7.315-46.773,23.685-57.006,24.561c-10.228,0.88-24.262,8.475-31.28,14.617
			c-7.017,6.151-18.121,20.171-18.121,20.171s-2.045,24.85-10.521,32.449c-8.476,7.6-23.098,20.181-30.124,26.612
			c-7.008,6.419-22.506,23.684-33.605,29.229c-11.108,5.564-24.55,16.961-33.041,26.895c-8.461,9.935-24.84,23.382-35.361,27.18
			c-10.531,3.812-21.635,3.22-23.969,8.779c-2.34,5.55-9.944,5.55-9.944,5.55s-2.344,6.136-6.724,11.402
			c-4.389,5.255-9.067,5.843-6.724,8.476c2.335,2.623,2.05,5.255,1.459,10.809c-0.583,5.554-8.966,64.909-20.658,92.183
			c-11.69,27.286-9.163,68.59-16.758,80.295c-7.6,11.702-11.104,16.957-7.6,30.992c3.508,14.02,5.265,48.9,3.706,59.83
			c-1.56,10.912,0.683,32.555,0.683,32.555l-4.096,0.275c0,0-1.459,48.24,2.623,62.271c4.091,14.035,10.723,36.641,32.165,45.208
			c21.433,8.592,32.749,16.764,39.746,19.484c7.027,2.739,10.243,6.189,12.875,4.004c2.618-2.189,6.334,0.49,6.72,2.825
			c0.394,2.348-0.289,5.467-4.39,5.573c0,0,2.436,1.353,0,3.004c-2.436,1.66-4.476-0.188-4.476-0.188s0,1.739-3.407,2.623
			c-3.413,0.896-4.779-1.376-4.779-1.376s0.49,1.964-4.087,3.138c-4.591,1.169-5.457-1.954-5.457-1.954s-2.252,1.843-5.069,2.141
			c-2.83,0.299-3.71-1.752-7.696-2.141c-4.004-0.389-9.458,2.633-14.531,1.467c-5.053-1.169-32.55-3.508-40.535-5.068
			c-7.99-1.559-22.622-2.916-28.445-2.161c-5.853,0.785-18.146-0.765-18.717-7.398c-0.583-6.631,4.096-20.07,4.096-29.816
			c0-9.751-1.565-30.216-8.193-48.52c-6.628-18.318-20.652-55.35-20.652-62.95c0-7.6-0.588-10.53-0.588-10.53
			s-30.99-18.314-29.826-22.218c1.169-3.898,1.169-7.017,1.169-7.017s-14.814,1.762-14.997-4.481
			c-0.207-6.232-0.389-10.708-0.389-10.708s-13.847,2.132-13.255-7.615c0.583-9.731,32.161-281.604,32.161-281.604
			s-4.968-13.736,1.448-24.252c0,0-44.718-2.633-57.284-4.972c-12.571-2.345-33.907-7.018-31.573-2.931
			c2.34,4.101-2.435,7.403-8.673,8.388c-6.237,0.964-7.797,0.964-7.797,2.527c0,1.55-2.532,4.091-5.848,4.274
			c-3.297,0.207-5.458-1.164-6.04,2.734c-0.588,3.898-5.266,7.984-8.188,8.585c-2.926,0.573-3.311-0.601-4.683,2.918
			c-1.362,3.498-4.485,3.498-6.035,2.339c-1.555-1.179-8.192,2.734-8.572-6.045c-0.399-8.774,0.379-13.636-2.345-17.332
			c-2.733-3.71,2.527-36.26,4.476-47.75c1.959-11.507,4.101-28.651,5.266-35.472c1.174-6.82,3.123-14.425,2.531-14.425
			c-0.586,0-11.112-14.227-17.937-20.45c-6.815-6.243-13.636-16.186-16.557-21.057c-2.931-4.871-2.151-26.501-1.361-30.399
			c0.78-3.898,3.109-20.075,5.068-30.013c1.944-9.94,14.415-65.087,17.924-76.778c3.519-11.695,13.159-49.8,13.457-67.338
			c0.288-17.534,3.307-31.664,3.307-31.664s-5.059-8.77-5.059-13.457c0-4.669,1.545-6.821,1.545-6.821s-1.742-2.334-1.742-6.227
			c0-3.903,2.532-3.509,2.532-3.509s-1.56-6.237,1.747-9.938c3.321-3.711,7.032-2.34,8.186-4.101
			c1.174-1.747,4.688-4.092,4.688-4.092s3.301-12.278,0.187-19.482C70.117,7.069,60.172-0.338,61.747-5.983
			c1.559-5.66,9.158-3.514,9.158-3.514s-0.635-1.454,1.989-3.21c2.642-1.752,4.096,0.731,4.096,0.731s2.194-1.174,5.116-0.437
			c2.936,0.727,4.105,3.802,4.105,3.802s2.921-1.315,4.524,1.463c1.623,2.777,2.189,4.241,2.189,4.241s4.539,2.04,4.688,4.379
			c0.139,2.34,4.524,5.127,6.719,8.043c2.191,2.921,5.266,12.721,5.266,18.275c0,5.558,1.309,12.562,1.309,12.562
			s8.183,4.394,9.794,8.196c1.608,3.802,5.112,11.114,11.394,13c6.285,1.906,48.721,18.424,69.369,23.873
			c20.673,5.468,53.03,17.553,60.038,24.176c7.017,6.618,24.941,15.97,38.191,21.433c13.25,5.457,46.094,25.532,64.504,29.903
			c18.419,4.39,36.838,17.26,43.855,25.73c7.003,8.481,11.104,14.324,11.104,14.324S423.256,198.059,427.058,201.274
			 M122.934,96.133c0,0,0.202,11.697-8.557,15.007c-8.774,3.312-10.728,1.368-12.091,4.289c-1.361,2.926-0.977,30.399-0.587,43.653
			c0.404,13.24,6.626,56.312,3.903,71.71c-2.729,15.402-6.45,30.215-6.45,30.215s4.496,0.568,2.739,4.091
			c-1.752,3.499,2.146,3.499,0.202,7.793c-1.959,4.283,0.77,5.255-0.785,9.158c-1.559,3.894-1.944,5.651,0.391,5.078
			c2.339-0.601,15.405,0.962,17.74,5.049c2.33,4.105,8.582,2.936,13.442,5.467c4.871,2.537,16.364,7.985,24.754,10.912
			c8.385,2.921,34.298,7.408,41.122,11.301c6.82,3.898,7.984,0,12.086,3.306c4.086,3.322,9.149,0.202,13.052,2.926
			c3.898,2.734,7.793,3.322,14.42,1.363c6.623-1.949,6.031,0.775,10.137-2.532c4.082-3.307,19.487-9.155,28.844-8.956
			c9.352,0.192,22.019,2.926,22.019,2.926s4.294-0.203,8.38,3.7c4.105,3.895,7.802,9.93,9.362,7.393
			c1.554-2.531,2.733-2.531,5.646-2.719c2.926-0.202,8.186-2.733,7.209-5.848c-0.967-3.128,0.977-11.113,5.271-13.64
			c4.283-2.532,6.81-1.169,4.866-6.233c-1.949-5.078-1.949-9.37,1.747-12.677c3.701-3.311,2.334-5.063,1.757-6.618
			c-0.588-1.554,9.158-3.513,4.475-11.31c-4.682-7.783-0.577-9.935-0.577-9.935s-1.752-12.09,0.375-16.374
			c2.151-4.298,2.739-6.632-1.545-8.966c-4.293-2.33-43.668-17.919-56.133-32.156c-12.47-14.223-35.472-45.988-38.779-48.139
			c-3.306-2.151-36.055-15.392-43.269-17.337c-7.205-1.954-39.562-19.107-48.134-24.176
			C151.389,108.812,126.25,93.414,122.934,96.133"/>
	</g>
</g>
</svg>
