<?xml version="1.0" encoding="utf-8"?>
<!-- Generator: Adobe Illustrator 17.0.0, SVG Export Plug-In . SVG Version: 6.00 Build 0)  -->
<!DOCTYPE svg PUBLIC "-//W3C//DTD SVG 1.1//EN" "http://www.w3.org/Graphics/SVG/1.1/DTD/svg11.dtd">
<svg version="1.1" id="图形" xmlns="http://www.w3.org/2000/svg" xmlns:xlink="http://www.w3.org/1999/xlink" x="0px" y="0px"
	 width="1000.636px" height="1000.678px" viewBox="15.167 -16.333 1000.636 1000.678"
	 enable-background="new 15.167 -16.333 1000.636 1000.678" xml:space="preserve">
<g>
	<path fill="#2FD0B5" d="M757.224,729.671V685.4h198.06c8.305,0,15.418-6.723,15.418-15.416V45.361
		c0-8.3-6.719-15.418-15.418-15.418H493.143v-44.276h462.141c32.811,0,59.293,26.882,59.293,59.3v624.617
		c0,32.811-26.876,59.306-59.293,59.306h-198.06V729.671L757.224,729.671L757.224,729.671z M604.625,723.749v-2.378
		c0-148.641-120.971-269.611-269.611-269.611c-149.041,0-270.012,120.971-270.012,269.611v2.378H17.167v-2.378
		c0-142.311,94.876-267.234,232.059-305.587c-81.042-34.395-134.807-115.042-134.807-203.195
		c0-121.763,99.23-220.987,220.595-220.987c121.759,0,220.593,99.223,220.593,220.987c0,88.153-53.764,168.8-134.811,203.195
		c136.782,38.353,231.659,163.275,232.059,305.587v2.378H604.625L604.625,723.749L604.625,723.749L604.625,723.749z M335.014,39.825
		c-95.27,0-172.759,77.483-172.759,172.764c0,95.27,77.489,172.753,172.759,172.753c95.277,0,172.758-77.483,172.758-172.753
		C507.772,117.308,430.284,39.825,335.014,39.825L335.014,39.825L335.014,39.825L335.014,39.825z M667.878,457.296v-49.813H900.33
		v49.813H667.878L667.878,457.296L667.878,457.296L667.878,457.296z M586.442,307.066v-49.805H900.33v49.805H586.442
		L586.442,307.066L586.442,307.066L586.442,307.066z M586.442,166.331v-49.419H900.33v49.819H586.442V166.331L586.442,166.331
		L586.442,166.331z M586.442,166.331"/>
</g>
</svg>
