<?xml version="1.0" encoding="utf-8"?>
<!-- Generator: Adobe Illustrator 17.0.0, SVG Export Plug-In . SVG Version: 6.00 Build 0)  -->
<!DOCTYPE svg PUBLIC "-//W3C//DTD SVG 1.1//EN" "http://www.w3.org/Graphics/SVG/1.1/DTD/svg11.dtd">
<svg version="1.1" id="图形" xmlns="http://www.w3.org/2000/svg" xmlns:xlink="http://www.w3.org/1999/xlink" x="0px" y="0px"
	 width="1000.636px" height="1000.678px" viewBox="15.167 -16.333 1000.636 1000.678"
	 enable-background="new 15.167 -16.333 1000.636 1000.678" xml:space="preserve">
<g>
	<path fill="#2FD0B5" d="M1012.415,70.505c0-45.524-37.246-84.838-84.838-84.838H104.009c-47.594,0-84.839,37.244-84.839,84.838
		v43.455h993.245V70.505L1012.415,70.505z M1012.415,70.505"/>
	<path fill="#2FD0B5" d="M19.17,215.356v403.503c0,45.524,37.246,84.844,84.839,84.844h825.637c45.523,0,84.838-37.25,84.838-84.844
		V215.356H19.17L19.17,215.356z M412.329,496.775c0,14.483-12.414,26.901-26.902,26.901H108.149
		c-14.484,0-26.902-12.418-26.902-26.901v-6.21c0-14.483,12.418-26.901,26.902-26.901h275.214c14.483,0,26.897,12.418,26.897,26.901
		v6.21H412.329z M464.062,380.895H112.288c-16.554,0-31.041-14.483-31.041-31.035c0-16.559,14.488-31.041,31.041-31.041h351.774
		c16.552,0,31.04,14.483,31.04,31.041C495.103,366.412,480.615,380.895,464.062,380.895L464.062,380.895z M844.807,507.119
		L844.807,507.119c16.552,0,31.036,14.488,31.036,31.04c0,16.554-14.484,31.041-31.036,31.041h-64.146v31.036l0,0v8.279
		c0,20.692-16.559,39.314-39.32,39.314c-20.692,0-39.315-16.552-39.315-39.314v-8.279l0,0V571.27h-62.077l0,0l0,0
		c-16.552,0-31.041-14.488-31.041-31.041c0-16.553,14.489-31.04,31.041-31.04l0,0l0,0h62.077v-31.037h-62.077l0,0l0,0
		c-16.552,0-31.041-14.488-31.041-31.04c0-16.554,14.489-31.037,31.041-31.037l0,0l0,0h57.937c0-2.07,2.07-4.139,2.07-6.209
		l-70.355-70.355c-8.274-8.28-6.204-24.832,6.209-37.246c12.418-12.418,28.971-14.488,37.25-6.209l68.281,68.286l64.151-68.286
		c10.344-10.348,28.967-8.279,41.385,4.139c12.413,12.413,18.622,22.761,6.204,37.244l-74.49,74.496v2.07h62.077l0,0
		c16.552,0,31.04,14.483,31.04,31.037c0,16.557-14.488,31.04-31.04,31.04l0,0h-64.146v31.036H844.807L844.807,507.119z
		 M844.807,507.119"/>
</g>
</svg>
