<?xml version="1.0" encoding="utf-8"?>
<!-- Generator: Adobe Illustrator 17.0.0, SVG Export Plug-In . SVG Version: 6.00 Build 0)  -->
<!DOCTYPE svg PUBLIC "-//W3C//DTD SVG 1.1//EN" "http://www.w3.org/Graphics/SVG/1.1/DTD/svg11.dtd">
<svg version="1.1" id="图形" xmlns="http://www.w3.org/2000/svg" xmlns:xlink="http://www.w3.org/1999/xlink" x="0px" y="0px"
	 width="1000.636px" height="1000.678px" viewBox="15.167 -16.333 1000.636 1000.678"
	 enable-background="new 15.167 -16.333 1000.636 1000.678" xml:space="preserve">
<g>
	<path fill="#2FD0B5" d="M950.71,23.794c0-9.54-3.639-19.081-10.922-26.358c-7.277-7.283-16.818-10.921-26.364-10.921H753.861
		h-11.182H372.346h-31.07h-98.179c-9.54,0-19.081,3.638-26.358,10.921c-7.282,7.277-10.921,16.818-10.921,26.358v86.996h0.249
		h166.279h318.885c38.441,7.289,69.26,23.193,92.46,47.716c23.2,24.527,37.444,59.655,42.743,105.383V683.53v173.893h3.982h83.007
		c9.546,0,19.087-3.644,26.364-10.921c7.283-7.277,10.922-16.824,10.922-26.364v-58.162V683.53V234.064
		c0-2.157-0.055-4.337-0.136-6.535l0.136,0.076V23.794L950.71,23.794z M950.71,23.794"/>
	<path fill="#2FD0B5" d="M764.775,247.824c0-19.081-7.283-38.162-21.842-52.72c-14.56-14.56-33.641-21.837-52.722-21.837H580.851
		v0.155H202.092v-0.155H55.446c-9.54,0-19.081,3.638-26.358,10.915c-7.283,7.283-10.921,16.823-10.921,26.364v91.128v41.225v471.148
		v41.387v90.967c0,9.54,3.638,19.081,10.921,26.358c7.277,7.282,16.818,10.921,26.358,10.921h90.967h55.679h378.759h55.697h90.943
		c9.54,0,19.081-3.639,26.364-10.921c7.277-7.277,10.921-16.818,10.921-26.358v-84.952c0.006-0.677,0.024-1.358,0.024-2.039V297.691
		c0-0.255-0.024-0.522-0.024-0.783V247.824L764.775,247.824z M622.136,776.891c-12.266,11.934-27.01,17.89-44.248,17.89H205.072
		c-17.232,0-31.975-5.96-44.236-17.89c-12.267-11.934-18.394-26.511-18.394-43.744c0-17.232,6.127-31.981,18.394-44.242
		c12.26-12.26,27.004-18.394,44.236-18.394h372.816c17.232,0,31.982,6.133,44.248,18.394c12.26,12.26,18.394,27.01,18.394,44.242
		C640.53,750.38,634.397,764.956,622.136,776.891L622.136,776.891z M622.136,528.345c-12.266,11.936-27.01,17.89-44.248,17.89
		H205.072c-17.232,0-31.975-5.96-44.236-17.89c-12.267-11.934-18.394-26.511-18.394-43.744c0-17.232,6.127-31.981,18.394-44.242
		c12.26-12.26,27.004-18.394,44.236-18.394h372.816c17.232,0,31.982,6.133,44.248,18.394c12.26,12.26,18.394,27.01,18.394,44.242
		C640.53,501.834,634.397,516.411,622.136,528.345L622.136,528.345z M622.136,528.345"/>
</g>
</svg>
