<?xml version="1.0" encoding="utf-8"?>
<!-- Generator: Adobe Illustrator 17.0.0, SVG Export Plug-In . SVG Version: 6.00 Build 0)  -->
<!DOCTYPE svg PUBLIC "-//W3C//DTD SVG 1.1//EN" "http://www.w3.org/Graphics/SVG/1.1/DTD/svg11.dtd">
<svg version="1.1" id="图形" xmlns="http://www.w3.org/2000/svg" xmlns:xlink="http://www.w3.org/1999/xlink" x="0px" y="0px"
	 width="1000.636px" height="1000.678px" viewBox="15.167 -16.333 1000.636 1000.678"
	 enable-background="new 15.167 -16.333 1000.636 1000.678" xml:space="preserve">
<g>
	<path fill="#2FD0B5" d="M440.152,983.345c-146.157,0-417.984-222.469-417.984-432.828V131.454l41.564-0.678
		c0.878,0,93.663-1.96,189.392-40.62c98.18-39.679,161.514-85.242,162.111-85.68l24.818-17.982l25.01,17.982
		c0.601,0.438,63.926,46.001,162.115,85.68c95.738,38.66,188.519,40.62,189.497,40.62l41.364,0.678l0.195,419.063
		C858.237,760.876,586.405,983.345,440.152,983.345L440.152,983.345L440.152,983.345z M106.579,211.796v338.721
		c0,162.646,236.752,348.859,333.573,348.859c96.812,0,333.579-186.219,333.579-348.859V211.796
		c-41.365-4.46-108.535-15.672-178.27-43.84c-71.497-28.907-125.762-60.357-155.309-79.068
		c-29.455,18.711-83.819,50.161-155.221,79.068C215.108,196.124,147.939,207.336,106.579,211.796L106.579,211.796L106.579,211.796z
		 M417.796,707.972L240.312,557.573l54.565-63.891l113.858,96.43l216.089-247.663l63.806,55.066L417.796,707.972L417.796,707.972z
		 M417.796,707.972"/>
</g>
</svg>
