<?xml version="1.0" encoding="utf-8"?>
<!-- Generator: Adobe Illustrator 17.0.0, SVG Export Plug-In . SVG Version: 6.00 Build 0)  -->
<!DOCTYPE svg PUBLIC "-//W3C//DTD SVG 1.1//EN" "http://www.w3.org/Graphics/SVG/1.1/DTD/svg11.dtd">
<svg version="1.1" id="图形" xmlns="http://www.w3.org/2000/svg" xmlns:xlink="http://www.w3.org/1999/xlink" x="0px" y="0px"
	 width="1000.636px" height="1000.678px" viewBox="15.167 -16.333 1000.636 1000.678"
	 enable-background="new 15.167 -16.333 1000.636 1000.678" xml:space="preserve">
<g>
	<path fill="#2FD0B5" d="M392.438,453.502c-51.04,0-93.571-42.531-93.571-93.564c0-51.041,42.53-93.571,93.571-93.571
		c51.034,0,93.564,42.53,93.564,93.571C486.002,410.972,443.472,453.502,392.438,453.502L392.438,453.502L392.438,453.502
		L392.438,453.502z M392.438,193.216c-91.868,0-166.722,74.854-166.722,166.722c0,91.862,74.854,166.715,166.722,166.715
		c91.862,0,166.715-74.854,166.715-166.715C559.153,268.069,484.3,193.216,392.438,193.216L392.438,193.216L392.438,193.216
		L392.438,193.216z M392.438,865.2c-49.338,0-294.314-377.671-294.314-500.16c0-161.617,130.993-294.312,294.314-294.312
		c163.314,0,294.307,130.993,294.307,294.312C686.745,487.529,440.071,865.2,392.438,865.2L392.438,865.2L392.438,865.2
		L392.438,865.2z M392.438-14.333c-205.851,0-374.271,166.721-374.271,374.271c0,156.508,311.32,622.641,374.271,622.641
		c61.241,0,372.567-467.835,372.567-622.641C765.005,152.388,598.283-14.333,392.438-14.333L392.438-14.333L392.438-14.333
		L392.438-14.333z M392.438-14.333"/>
</g>
</svg>
