<?xml version="1.0" encoding="utf-8"?>
<!-- Generator: Adobe Illustrator 17.0.0, SVG Export Plug-In . SVG Version: 6.00 Build 0)  -->
<!DOCTYPE svg PUBLIC "-//W3C//DTD SVG 1.1//EN" "http://www.w3.org/Graphics/SVG/1.1/DTD/svg11.dtd">
<svg version="1.1" id="图形" xmlns="http://www.w3.org/2000/svg" xmlns:xlink="http://www.w3.org/1999/xlink" x="0px" y="0px"
	 width="1000.636px" height="1000.678px" viewBox="15.167 -16.333 1000.636 1000.678"
	 enable-background="new 15.167 -16.333 1000.636 1000.678" xml:space="preserve">
<g>
	<path fill="#F5AC05" d="M175.599,57.467l-29.382,25.178c-1.849,1.8-2.69,4.4-2.258,6.948l6.938,40.44
		c0.543,3.207,0,5.502-2.623,7.417c-1.488,1.084-3.256,1.63-5.028,1.63c-1.359,0-2.723-0.322-3.972-0.978l-37.101-19.998
		c-2.285-1.202-5.018-1.202-7.303,0l-35.541,19.998c-2.88,1.516-6.364,1.259-9.001-0.652c-2.628-1.915-4.727-4.206-4.176-7.417
		l8.501-41.282c0.432-2.547-0.409-5.141-2.258-6.948L21.449,57.467c-2.333-2.271-3.169-5.669-2.172-8.758
		c1.012-3.099,3.682-5.346,6.905-5.816l40.246-7.067c2.556-0.37,4.766-1.977,5.906-4.291L90.864-7.566
		c1.434-2.917,4.405-4.766,7.659-4.766c3.26,0,6.221,1.844,7.661,4.766l17.807,39.101c1.141,2.319,3.35,3.921,5.908,4.296
		l40.972,7.062c3.218,0.466,5.893,2.723,6.895,5.816C178.768,51.802,177.922,55.195,175.599,57.467L175.599,57.467L175.599,57.467z
		 M175.599,57.467"/>
	<path fill="#F5AC05" d="M384.412,57.467L355.03,82.644c-1.848,1.8-2.695,4.4-2.257,6.948l6.938,40.44
		c0.541,3.207,0,5.502-2.628,7.417c-1.488,1.084-3.255,1.63-5.028,1.63c-1.359,0-2.719-0.322-3.973-0.978l-37.095-19.998
		c-2.291-1.202-5.018-1.202-7.304,0l-35.541,19.998c-2.88,1.516-6.367,1.259-9.005-0.652c-2.628-1.915-4.724-4.206-4.173-7.417
		l8.498-41.282c0.437-2.547-0.409-5.141-2.258-6.948l-30.94-24.336c-2.338-2.271-3.175-5.669-2.173-8.758
		c1.007-3.099,3.679-5.346,6.9-5.816l40.246-7.067c2.557-0.37,4.766-1.977,5.912-4.291l18.528-39.101
		c1.436-2.917,4.405-4.766,7.661-4.766c3.255,0,6.215,1.844,7.661,4.766L332.8,31.535c1.145,2.319,3.354,3.921,5.911,4.296
		l40.973,7.062c3.212,0.466,5.893,2.723,6.891,5.816C387.582,51.802,386.736,55.195,384.412,57.467L384.412,57.467L384.412,57.467z
		 M384.412,57.467"/>
	<path fill="#F5AC05" d="M593.221,57.467l-29.382,25.178c-1.849,1.8-2.695,4.4-2.258,6.948l6.938,40.44
		c0.543,3.207,0,5.502-2.628,7.417c-1.487,1.084-3.255,1.63-5.023,1.63c-1.359,0-2.723-0.322-3.972-0.978l-37.1-19.998
		c-2.286-1.202-5.018-1.202-7.304,0l-35.541,19.998c-2.88,1.516-6.364,1.259-9.001-0.652c-2.628-1.915-4.728-4.206-4.176-7.417
		l8.496-41.282c0.438-2.547-0.404-5.141-2.257-6.948l-30.942-24.336c-2.338-2.271-3.169-5.669-2.172-8.758
		c1.007-3.099,3.678-5.346,6.9-5.816l40.251-7.067c2.551-0.37,4.762-1.977,5.906-4.291l18.529-39.101
		c1.434-2.917,4.405-4.766,7.661-4.766c3.254,0,6.215,1.844,7.659,4.766l17.807,39.101c1.141,2.319,3.35,3.921,5.908,4.296
		l40.972,7.062c3.213,0.466,5.893,2.723,6.891,5.816C596.391,51.802,595.544,55.195,593.221,57.467L593.221,57.467L593.221,57.467z
		 M593.221,57.467"/>
	<path fill="#F5AC05" d="M802.03,57.467l-29.383,25.178c-1.848,1.8-2.693,4.4-2.257,6.948l6.938,40.44
		c0.541,3.207,0,5.502-2.628,7.417c-1.483,1.084-3.255,1.63-5.023,1.63c-1.359,0-2.723-0.322-3.973-0.978l-37.1-19.998
		c-2.286-1.202-5.018-1.202-7.304,0l-35.54,19.998c-2.881,1.516-6.364,1.259-9.001-0.652c-2.628-1.915-4.729-4.206-4.178-7.417
		l8.502-41.282c0.432-2.547-0.409-5.141-2.263-6.948l-30.94-24.336c-2.333-2.271-3.17-5.669-2.172-8.758
		c1.012-3.099,3.682-5.346,6.9-5.816l40.249-7.067c2.557-0.37,4.766-1.977,5.908-4.291l18.528-39.101
		c1.436-2.917,4.405-4.766,7.661-4.766c3.255,0,6.217,1.844,7.661,4.766l17.807,39.101c1.14,2.319,3.35,3.921,5.906,4.296
		l40.973,7.062c3.213,0.466,5.893,2.723,6.895,5.816C805.199,51.802,804.358,55.195,802.03,57.467L802.03,57.467L802.03,57.467z
		 M802.03,57.467"/>
	<path fill="#F5AC05" d="M1010.843,57.467l-29.382,25.178c-1.849,1.8-2.695,4.4-2.258,6.948l6.934,40.44
		c0.546,3.207,0.005,5.502-2.624,7.417c-1.487,1.084-3.254,1.63-5.023,1.63c-1.364,0-2.723-0.322-3.977-0.978l-37.095-19.998
		c-2.286-1.202-5.018-1.202-7.304,0l-35.541,19.998c-2.88,1.516-6.367,1.259-9.005-0.652c-2.628-1.915-4.724-4.206-4.173-7.417
		l8.496-41.282c0.438-2.547-0.409-5.141-2.257-6.948l-30.942-24.336c-2.338-2.271-3.174-5.669-2.172-8.758
		c1.007-3.099,3.679-5.346,6.9-5.816l40.251-7.067c2.552-0.37,4.761-1.977,5.906-4.291l18.529-39.101
		c1.435-2.917,4.405-4.766,7.661-4.766c3.255,0,6.215,1.844,7.661,4.766l17.8,39.101c1.146,2.319,3.355,3.921,5.912,4.296
		l40.973,7.062c3.212,0.466,5.892,2.723,6.891,5.816C1014.013,51.802,1013.166,55.195,1010.843,57.467L1010.843,57.467
		L1010.843,57.467z M1010.843,57.467"/>
</g>
</svg>
