<?xml version="1.0" encoding="utf-8"?>
<!-- Generator: Adobe Illustrator 17.0.0, SVG Export Plug-In . SVG Version: 6.00 Build 0)  -->
<!DOCTYPE svg PUBLIC "-//W3C//DTD SVG 1.1//EN" "http://www.w3.org/Graphics/SVG/1.1/DTD/svg11.dtd">
<svg version="1.1" id="图形" xmlns="http://www.w3.org/2000/svg" xmlns:xlink="http://www.w3.org/1999/xlink" x="0px" y="0px"
	 width="1000.636px" height="1000.678px" viewBox="15.167 -16.333 1000.636 1000.678"
	 enable-background="new 15.167 -16.333 1000.636 1000.678" xml:space="preserve">
<g>
	<path fill="#FF781E" d="M514.982-12.333c-273.845,0-495.818,221.992-495.818,495.818c0,273.839,221.973,495.812,495.818,495.812
		c273.853,0,495.812-221.973,495.812-495.812C1010.794,209.66,788.836-12.333,514.982-12.333L514.982-12.333L514.982-12.333z
		 M514.982,918.281c-239.227,0-433.842-195.574-433.842-434.796c0-239.227,194.615-433.842,433.842-433.842
		c239.222,0,433.836,194.615,433.836,433.842C948.819,722.708,754.205,918.281,514.982,918.281L514.982,918.281L514.982,918.281z
		 M545.977,470.907V173.6c0-17.117-13.854-31.001-30.995-31.001c-17.132,0-31.001,13.869-31.001,31.001v309.885
		c0,8.757,3.669,16.63,9.514,22.28c0.539,0.6,0.945,1.276,1.517,1.848L648.4,660.986c12.095,12.11,31.733,12.11,43.81,0
		c12.095-12.11,12.128-31.718,0-43.814L545.977,470.907L545.977,470.907L545.977,470.907z M545.977,470.907"/>
</g>
</svg>
