<?xml version="1.0" encoding="utf-8"?>
<!-- Generator: Adobe Illustrator 17.0.0, SVG Export Plug-In . SVG Version: 6.00 Build 0)  -->
<!DOCTYPE svg PUBLIC "-//W3C//DTD SVG 1.1//EN" "http://www.w3.org/Graphics/SVG/1.1/DTD/svg11.dtd">
<svg version="1.1" id="图形" xmlns="http://www.w3.org/2000/svg" xmlns:xlink="http://www.w3.org/1999/xlink" x="0px" y="0px"
	 width="1000.636px" height="1000.678px" viewBox="15.167 -16.333 1000.636 1000.678"
	 enable-background="new 15.167 -16.333 1000.636 1000.678" xml:space="preserve">
<g>
	<path fill="#FFFFFF" d="M793.263,345.877c0,18.383-131.16,234.844-250.445,253.918v114.032
		c29.41,15.101,87.996,46.984,87.996,61.386c0,19.223-46.758,34.809-104.434,34.809c-57.676,0-104.43-15.586-104.43-34.809
		c0-14.398,58.582-46.285,87.993-61.382V599.795C390.657,580.717,259.497,364.26,259.497,345.877
		c0-8.976,26.082-17.164,68.903-23.339l-57.254-58.547l-81.028,76.8l-23.945-25.269l106.16-100.625l16.852,17.785l82.918,84.789
		c27.593-2.555,59.078-4.437,93.054-5.48c-5.578-29.586-3.05-61.055,9.114-91.028c33.738-83.132,128.484-123.172,211.613-89.437
		c80.254,32.566,120.328,121.984,92.66,202.933C788.071,338.038,793.263,341.877,793.263,345.877L793.263,345.877z M679.044,148.389
		c-73.824-29.957-157.949,5.598-187.906,79.418c-11.195,27.582-13.238,56.609-7.559,83.707c5.91-0.121,11.899-0.219,17.934-0.289
		c-2.195-3.601-3.719-7.68-4.356-12.098c-2.523-17.496,9.719-33.589,27.344-35.941c17.621-2.363,79.02,21.715,79.02,21.715
		s-19.43,14.598-38.594,26.531c13.246,0.25,26.176,0.625,38.715,1.121c7.636-6.422,13.156-10.785,13.156-10.785
		s0.59,4.508,1.344,11.414c7.715,0.367,15.261,0.781,22.625,1.238c-1.703-9.144-2.696-15.496-2.696-15.496
		s20.079,8.426,39.247,18.246c34.746,3.114,63.566,7.27,83.773,12.129C786.138,257.237,750.536,177.409,679.044,148.389
		L679.044,148.389z M770.055,356.499c-31.508,14.027-124.672,24.191-243.676,24.191s-212.168-10.164-243.672-24.191v20.789
		c51.649,15.996,141.383,26.613,243.672,26.613c102.289,0,192.023-10.617,243.676-26.613V356.499L770.055,356.499z M725.095,300.924
		c-17.625,2.356-79.027-21.715-79.027-21.715s52.269-39.281,69.89-41.64c17.625-2.352,33.957,9.914,36.481,27.414
		C754.957,282.475,742.716,298.569,725.095,300.924L725.095,300.924z M632.798,262.342c0,0-8.551-64.801-1.918-81.133
		c6.625-16.332,25.391-24.132,41.914-17.429c16.527,6.711,24.547,25.383,17.922,41.711
		C684.086,221.823,632.798,262.342,632.798,262.342L632.798,262.342z M539.716,225.694c-10.996-13.977-8.559-34.051,5.441-44.836
		c14-10.793,34.262-8.211,45.262,5.766c10.996,13.968,21.106,78.562,21.106,78.562S550.712,239.666,539.716,225.694L539.716,225.694
		z M539.716,225.694"/>
</g>
</svg>
