<?xml version="1.0" encoding="utf-8"?>
<!-- Generator: Adobe Illustrator 17.0.0, SVG Export Plug-In . SVG Version: 6.00 Build 0)  -->
<!DOCTYPE svg PUBLIC "-//W3C//DTD SVG 1.1//EN" "http://www.w3.org/Graphics/SVG/1.1/DTD/svg11.dtd">
<svg version="1.1" id="图形" xmlns="http://www.w3.org/2000/svg" xmlns:xlink="http://www.w3.org/1999/xlink" x="0px" y="0px"
	 width="1000.636px" height="1000.678px" viewBox="15.167 -16.333 1000.636 1000.678"
	 enable-background="new 15.167 -16.333 1000.636 1000.678" xml:space="preserve">
<g>
	<path fill="#FFFFFF" d="M518.065,546.815l0.226,115.031c16.883-26.742,29.348-39.715,35.496-44.883
		c-0.109,0.055-0.183,0.106-0.301,0.164c6.985-6.449,14.497-12.015,22.637-16.367c26.559-43.004,65.496-79.398,113.449-65.054
		c21.153,6.328,42.196,21.351,56.934,40.367c1.246,1,2.031,2.383,2.367,3.933c1.129,2.629,0.938,5.801-1.664,8.297
		c-30.019,28.735-66.633,55.113-107.051,52.028c-1.519-0.114-3.015-0.278-4.504-0.473c-40.179-7.442-50.015-32.527-82.789-0.313
		c-2.48,2.871-4.949,5.864-7.437,9.114c-9.535,12.492-18.41,25.828-26.34,39.781c-0.211,0.383-0.504,0.558-0.742,0.871l0.101,49.715
		c0.075,0.453,0.008,0.867,0,1.316l1.68,56.762c0.012,7.934-5.426,14.375-12.156,14.387c-6.727,0.015-12.192-6.407-12.203-14.34
		l-1.707-71.332c-4.801-7.219-9.793-14.258-15.032-21.012c-2.496-3.215-4.976-6.168-7.468-9.004
		c-32.903-31.812-42.633-6.898-82.785,0.633c-1.489,0.203-2.989,0.375-4.504,0.492c-40.407,3.223-77.125-22.785-107.254-51.164
		c-2.617-2.465-2.817-5.605-1.699-8.215l0,0c0.328-1.543,1.105-2.918,2.347-3.91c14.66-18.918,35.649-33.894,56.774-40.254
		c47.898-14.41,86.976,21.516,113.707,64.055c8.16,4.281,15.695,9.766,22.699,16.137c-0.113-0.059-0.184-0.102-0.293-0.164
		c4.582,3.793,12.664,11.867,23.449,26.515l-0.305-153.683C493.651,520.737,518.01,521.127,518.065,546.815L518.065,546.815
		L518.065,546.815z M585.072,96.061c-5.007,13.437-7.32,28.355-8.664,42.828c-29.863,9.016-81.836,26.352-109.523,40.895
		c-6.777-6.914-13.977-13.512-21.504-19.786C478.529,131.893,542.147,108.725,585.072,96.061L585.072,96.061L585.072,96.061
		L585.072,96.061z M447.819,186.983c-21.602,12.894-72.094,54.008-80.043,63.648c4.648-27.843,6.699-63.761,3.179-91.89
		c-1.328-10.649-3.211-21.938-6.324-32.743C392.354,140.553,425.233,164.44,447.819,186.983L447.819,186.983L447.819,186.983
		L447.819,186.983z M335.912,463.78c-50.207-60.141,9.922-164.375,58.422-207.43c64.313-57.094,146.633-90.34,234.07-109.676
		c-17.421,22.512-22.593,60.52-15.781,90.559c8.215,36.195,33.867,66.133,44.668,101.496c9.613,31.48,16.192,67.238,3.524,98.875
		c-12.055,30.117-40.926,48.445-72.473,58.207c-46.238,14.309-99.027,16.211-147.145,11.535
		C403.455,503.682,360.459,493.174,335.912,463.78L335.912,463.78L335.912,463.78L335.912,463.78z M335.912,463.78"/>
</g>
</svg>
