<?xml version="1.0" encoding="utf-8"?>
<!-- Generator: Adobe Illustrator 17.0.0, SVG Export Plug-In . SVG Version: 6.00 Build 0)  -->
<!DOCTYPE svg PUBLIC "-//W3C//DTD SVG 1.1//EN" "http://www.w3.org/Graphics/SVG/1.1/DTD/svg11.dtd">
<svg version="1.1" id="图形" xmlns="http://www.w3.org/2000/svg" xmlns:xlink="http://www.w3.org/1999/xlink" x="0px" y="0px"
	 width="1000.636px" height="1000.678px" viewBox="15.167 -16.333 1000.636 1000.678"
	 enable-background="new 15.167 -16.333 1000.636 1000.678" xml:space="preserve">
<path fill="#2BE1B6" d="M66.864,873.171c-29.598,4.088-50.276,31.406-46.179,61.008c3.241,23.453,21.071,41.301,43.058,45.666
	c11.893,2.358,33.736-0.065,45.495-1.628l94.601-12.549l731.451-96.871l-0.185-52.703c0.042-2.746-0.125-5.53-0.513-8.332
	c-4.092-29.602-31.406-50.271-61.003-46.184l-59.866,8.286c-1.605-4.781-2.95-10.284-4.055-16.396
	c-4.143-22.87-3.967-52.278-0.532-84.618c8.041-75.638,33.616-164.065,63.833-223.196l34.18-5.41
	c7.01-1.027,12.845-4.393,17.372-10.385l65.142-85.968c9.003-11.93,6.635-28.909-5.299-37.916
	c-11.934-9.017-28.909-6.64-37.916,5.29l-51.788,68.351l-41.232,8.767l-144.946,30.804c-14.621,3.098-23.966,17.469-20.863,32.09
	c3.098,14.621,17.469,23.97,32.09,20.863l89.191-16.341c-25.811,61.674-46.364,139.522-53.568,207.327
	c-3.93,36.991-3.958,71.587,1.165,99.876c0.897,4.948,1.961,9.729,3.19,14.334L66.864,873.171L66.864,873.171z M935.289,966.666
	v-70.607l-431.827,57.309c-10.977,1.184-8.97,26.754,0,27.216h415.731C931.095,980.26,934.341,975.72,935.289,966.666
	L935.289,966.666z M323.19,426.483l-74.408,152.654l-167.459,30.86c-23.49,4.309-39.044,26.847-34.739,50.336
	c4.305,23.49,26.842,39.044,50.331,34.744l185.705-34.235c14.422-1.489,27.776-10.163,34.596-24.155l63.417-130.163l118.437,75.675
	L430.626,744.58c-9.266,22.001,1.05,47.34,23.046,56.606c21.996,9.266,47.335-1.054,56.601-23.045l81.103-192.419
	c10.506-19.762,4.217-44.611-14.977-56.874l-144.22-91.97l34.712-133.501l42.808,90.212c6.792,17.312,25.464,27.438,44.084,23.027
	l139.411-33.079c20.391-4.837,33.005-25.284,28.173-45.675c-4.827-20.391-25.279-33.005-45.67-28.169L566.07,335.688
	l-78.176-164.731c-10.408-22.056-48.426-29.575-70.011-21.325l-195.661,75.305c-18.052,4.975-30.083,22.666-27.48,41.726
	l20.391,148.548c2.783,20.715,21.839,35.262,42.558,32.478c20.72-2.783,35.257-21.843,32.474-42.558l-16.262-119.112l95.35-36.695
	L323.19,426.483L323.19,426.483z M461.186,0.325c-37.879,21.871-50.858,70.311-28.987,108.199
	c21.866,37.879,70.311,50.854,108.19,28.983s50.863-70.311,28.992-108.19C547.509-8.562,499.069-21.546,461.186,0.325L461.186,0.325
	z"/>
</svg>
