<?xml version="1.0" encoding="utf-8"?>
<!-- Generator: Adobe Illustrator 17.0.0, SVG Export Plug-In . SVG Version: 6.00 Build 0)  -->
<!DOCTYPE svg PUBLIC "-//W3C//DTD SVG 1.1//EN" "http://www.w3.org/Graphics/SVG/1.1/DTD/svg11.dtd">
<svg version="1.1" id="图形" xmlns="http://www.w3.org/2000/svg" xmlns:xlink="http://www.w3.org/1999/xlink" x="0px" y="0px"
	 width="1000.636px" height="1000.678px" viewBox="15.167 -16.333 1000.636 1000.678"
	 enable-background="new 15.167 -16.333 1000.636 1000.678" xml:space="preserve">
<g>
	<g>
		<path fill="#F69530" d="M302.78,299.391c2.783,0,5.556,0.021,8.339,0.037c2.612-8.57,5.364-17.098,8.265-25.567
			c27.695-80.774,67.394-153.376,117.987-215.795c20.886-25.76,43.203-49.258,66.83-70.399
			c-130.894,2.801-249.272,56.422-336.2,141.925c37.776,48.394,60.775,107.89,66.407,171.501
			C257.067,299.966,279.862,299.391,302.78,299.391L302.78,299.391z M302.78,299.391"/>
		<path fill="#F69530" d="M139.172,160.47C98.399,208.025,66.49,263.405,46.018,324.056c48.071-9.479,97.109-16.245,146.911-20.264
			C187.894,249.573,168.507,200.137,139.172,160.47L139.172,160.47z M139.172,160.47"/>
		<path fill="#F69530" d="M496.537,552.274c-33.004-58.728-44.771-117.497-34.981-174.687c1.52-8.899,3.552-17.663,6.083-26.283
			c-40.845-5.196-82.629-8.501-125.166-9.768c-16.001,61.65-24.652,127.367-24.652,195.553
			c0,168.835,53.021,322.561,139.448,436.819c18.935,2.197,38.194,3.332,57.722,3.332c135.815,0,258.842-54.719,348.258-143.307
			c-84.031-34.551-159.599-76.611-222.824-124.693C575.916,660.185,527.505,607.374,496.537,552.274L496.537,552.274z
			 M496.537,552.274"/>
		<path fill="#F69530" d="M193.939,345.426c-55.256,4.584-109.001,12.617-160.781,23.767
			c-8.507,36.358-13.015,74.252-13.015,113.198c0,35.637,3.772,70.393,10.935,103.896
			C122.058,552.854,188.984,458.242,193.939,345.426L193.939,345.426z M193.939,345.426"/>
		<path fill="#F69530" d="M868.402,136.025c-40.388,6.943-78.937,16.217-115.123,27.851
			c-109.996,35.358-187.745,88.851-226.16,154.221c48.916,8.339,96.895,19.44,143.71,33.289
			c112.945,33.407,214.473,81.306,301.76,142.355c12.316,8.614,24.251,17.437,35.825,26.455c0.941-12.478,1.424-25.084,1.424-37.803
			C1009.838,347.538,955.893,225.285,868.402,136.025L868.402,136.025z M868.402,136.025"/>
		<path fill="#F69530" d="M483.448,311.428c15.803-31.312,38.931-60.398,69.21-86.938c47.535-41.662,110.754-75.359,187.907-100.158
			c28.592-9.195,58.577-16.975,89.695-23.369C757.164,40.479,666.389,0.602,566.845-9.763
			C471.53,61.71,396.306,170.565,354.447,300.369C397.993,301.996,441.041,305.689,483.448,311.428L483.448,311.428z
			 M483.448,311.428"/>
		<path fill="#F69530" d="M276.283,537.089c0-67.169,7.867-132.877,23.419-196.144c-21.553,0.048-42.929,0.618-64.112,1.692
			c-2.359,78.04-30.608,151.131-80.167,206.805c-32.322,36.31-71.29,62.537-113.875,77.331
			c50.715,166.526,186.874,295.806,357.414,336.779c-32.645-49.526-59.329-104.187-79.577-163.237
			C290.786,716.903,276.283,628.342,276.283,537.089L276.283,537.089z M276.283,537.089"/>
		<path fill="#F69530" d="M502.498,384.598c-16.374,95.611,41.542,199.165,163.07,291.578
			c63.987,48.663,141.377,90.946,227.782,125.161c55.078-65.273,93.575-145,108.986-232.674
			C877.553,464.756,705.519,388.978,509.295,357.312C506.355,366.238,504.083,375.335,502.498,384.598L502.498,384.598z
			 M502.498,384.598"/>
	</g>
</g>
</svg>
