<?xml version="1.0" encoding="utf-8"?>
<!-- Generator: Adobe Illustrator 17.0.0, SVG Export Plug-In . SVG Version: 6.00 Build 0)  -->
<!DOCTYPE svg PUBLIC "-//W3C//DTD SVG 1.1//EN" "http://www.w3.org/Graphics/SVG/1.1/DTD/svg11.dtd">
<svg version="1.1" id="图形" xmlns="http://www.w3.org/2000/svg" xmlns:xlink="http://www.w3.org/1999/xlink" x="0px" y="0px"
	 width="1000.636px" height="1000.678px" viewBox="15.167 -16.333 1000.636 1000.678"
	 enable-background="new 15.167 -16.333 1000.636 1000.678" xml:space="preserve">
<g>
	<path fill="#4C4C4C" d="M608.739,614.806c-114.329,0-207.05-92.7-207.05-207.041c0-114.329,92.721-207.071,207.05-207.071
		c114.341,0,207.062,92.742,207.062,207.071C815.801,522.106,723.087,614.806,608.739,614.806L608.739,614.806z M515.121-12.606
		c-274.488,0-496.954,222.485-496.954,496.933c0,274.455,222.465,496.934,496.954,496.934c274.435,0,496.949-222.48,496.949-496.934
		C1012.069,209.879,789.556-12.606,515.121-12.606"/>
	<path fill="#4C4C4C" d="M679.153,490.683c-5.027,10.561-14.122,18.079-27.666,22.686c-13.487,4.392-25.281,3.814-35.747-1.763
		c-10.279-5.557-17.977-15.768-22.769-30.509c-5.094-15.299-4.909-28.173,0.166-38.687c5.24-10.5,14.369-17.95,27.526-22.357
		c13.288-4.262,25.172-3.807,35.534,1.563c10.445,5.323,18.081,15.684,23.108,30.955
		C684.241,467.328,684.22,480.003,679.153,490.683L679.153,490.683z M574.437,374.027c-9.014-4.674-15.224-12.511-18.749-23.326
		c-3.925-11.926-3.739-22.288,0.784-31.087c4.51-8.903,12.759-15.368,24.65-19.265c11.91-4.006,22.355-3.691,30.941,0.786
		c8.882,4.523,15.202,12.758,19.196,24.551c3.511,10.858,3.298,20.89-1.177,29.923c-4.214,8.965-12.359,15.553-24.373,19.498
		C593.88,379.081,583.518,378.751,574.437,374.027L574.437,374.027L574.437,374.027z M715.162,394.503
		c-6.136-5.674-13.006-10.362-20.594-14.058c-12.407-6.039-16.648-14.852-11.106-25.545c3.608-6.987,5.556-13.928,5.852-20.813
		c0.696-12.724-0.666-23.918-3.876-33.669c-7.084-21.743-21.571-37.607-42.97-47.555c-21.523-9.867-47.204-9.915-77.182-0.055
		c-30.026,9.886-50.563,25.323-62.013,46.034c-11.293,20.806-13.537,42.033-6.218,63.837c3.196,9.751,8.931,19.514,16.834,29.428
		c4.454,5.335,10.348,9.962,17.73,13.838c11.064,5.804,12.627,15.271,6.051,27.031c-3.923,7.036-6.664,14.617-8.178,22.825
		c-3.078,16.084-1.845,32.613,3.677,49.434c8.33,25.152,23.932,43.763,47.107,55.825c23.072,12.009,51.35,12.428,84.818,1.364
		c33.539-11.009,56.72-28.58,69.416-52.43c13.075-23.802,15.169-48.376,6.851-73.609
		C735.79,419.641,727.093,405.664,715.162,394.503"/>
</g>
</svg>
