<?xml version="1.0" encoding="utf-8"?>
<!-- Generator: Adobe Illustrator 17.0.0, SVG Export Plug-In . SVG Version: 6.00 Build 0)  -->
<!DOCTYPE svg PUBLIC "-//W3C//DTD SVG 1.1//EN" "http://www.w3.org/Graphics/SVG/1.1/DTD/svg11.dtd">
<svg version="1.1" id="图形" xmlns="http://www.w3.org/2000/svg" xmlns:xlink="http://www.w3.org/1999/xlink" x="0px" y="0px"
	 width="1000.636px" height="1000.678px" viewBox="15.167 -16.333 1000.636 1000.678"
	 enable-background="new 15.167 -16.333 1000.636 1000.678" xml:space="preserve">
<g>
	<g>
		<path fill="#F4584E" d="M68.077,720.6c-0.263,0.263-0.569,0.47-0.83,0.732C7.254,781.346,5.632,876.99,63.609,934.952
			c57.996,58.005,153.638,56.378,213.648-3.632c0.252-0.218,0.47-0.524,0.748-0.808l0.017,0.022l90.637-90.614l-210.011-209.99
			L68.077,720.6L68.077,720.6z M166.336,920.854c-13.712,13.712-44.633,4.947-69.096-19.487
			c-24.479-24.451-33.21-55.423-19.51-69.096c13.71-13.706,34.007,5.64,58.486,30.136
			C160.657,886.852,180.046,907.148,166.336,920.854L166.336,920.854z M166.336,920.854"/>
		<path fill="#F4584E" d="M981.869,474.458c-14.153-7.867-51.208-11.641-73.378-13.24c18.042-25.09-19.974-97.391-25.002-102.442
			c-4.483-4.483-62.642-35.269-92.888-28.924c6.33-30.255-24.462-88.42-28.961-92.903c-4.5-4.498-62.636-35.29-92.897-28.94
			c6.334-30.255-24.453-88.409-28.951-92.929c-5.09-5.09-79.377-44.092-103.436-24.135c-1.12-22.343-4.298-59.95-12.21-74.244
			c-11.553-20.788-54.609-56.526-73.911,1.747L219.455,569.152l1.862-1.89l26.013,26.018l88.087-140.015l29.774,29.792
			l-91.652,136.426l18.352,18.358l105.079-123.026l29.038,29.043L317.56,663.517l17.43,17.419l119.68-108.415l29.049,29.032
			L360.67,706.612l18.309,18.336l136.514-91.631l29.77,29.77l-140.043,88.059l26.112,26.122l-1.907,1.868l550.716-230.793
			C1038.417,529.034,1002.678,485.974,981.869,474.458L981.869,474.458z M404.86,423.994L373.534,392.7l34.924-55.505
			c8.066-12.351,23.6-17.565,34.696-11.619c11.134,5.979,13.601,20.825,5.569,33.139L404.86,423.994L404.86,423.994z
			 M472.925,492.101l-30.486-30.503l44.639-52.261c9.834-11.117,25.571-13.733,35.148-5.761c9.573,8.011,9.36,23.508-0.447,34.642
			v-0.006L472.925,492.101L472.925,492.101z M536.969,556.123l-30.512-30.501l53.921-48.838c11.112-9.795,26.636-9.997,34.63-0.419
			c7.955,9.594,5.357,25.308-5.816,35.164L536.969,556.123L536.969,556.123z M661.372,590.141l-55.499,34.875l-31.331-31.332
			l65.322-43.824c12.33-8.054,27.188-5.559,33.129,5.552C678.917,566.552,673.712,582.103,661.372,590.141L661.372,590.141z
			 M661.372,590.141"/>
	</g>
</g>
</svg>
