<?xml version="1.0" encoding="utf-8"?>
<!-- Generator: Adobe Illustrator 17.0.0, SVG Export Plug-In . SVG Version: 6.00 Build 0)  -->
<!DOCTYPE svg PUBLIC "-//W3C//DTD SVG 1.1//EN" "http://www.w3.org/Graphics/SVG/1.1/DTD/svg11.dtd">
<svg version="1.1" id="图形" xmlns="http://www.w3.org/2000/svg" xmlns:xlink="http://www.w3.org/1999/xlink" x="0px" y="0px"
	 width="1000.636px" height="1000.678px" viewBox="15.167 -16.333 1000.636 1000.678"
	 enable-background="new 15.167 -16.333 1000.636 1000.678" xml:space="preserve">
<g>
	<g>
		<path fill="#F79621" d="M516.11,979.819c-66.665,0-131.359-13.067-192.277-38.832c-58.818-24.881-111.639-60.487-156.996-105.843
			c-45.351-45.35-80.962-98.172-105.838-156.989C35.23,617.236,22.167,552.542,22.167,485.876
			c0-66.666,13.063-131.36,38.833-192.279c24.876-58.817,60.487-111.639,105.838-156.995
			C212.194,91.251,265.01,55.64,323.833,30.764C384.751,4.993,449.446-8.068,516.11-8.068c66.666,0,131.355,13.062,192.273,38.832
			C767.206,55.64,820.029,91.251,865.38,136.602c45.35,45.355,80.962,98.172,105.843,156.995
			c25.764,60.918,38.827,125.613,38.827,192.279c0,66.666-13.063,131.355-38.827,192.273
			c-24.881,58.822-60.494,111.645-105.843,156.995c-45.351,45.351-98.174,80.962-156.996,105.843
			C647.465,966.752,582.777,979.819,516.11,979.819L516.11,979.819z M516.11,61.925c-233.766,0-423.949,190.183-423.949,423.95
			c0,233.766,190.183,423.95,423.949,423.95c233.767,0,423.95-190.184,423.95-423.95C940.06,252.108,749.878,61.925,516.11,61.925
			L516.11,61.925z M516.11,61.925"/>
		<path fill="#F79621" d="M302.092,541.725l-75.693-83.785l84.36-161.66l159.663,36.058L455.532,457.18L302.092,541.725z
			 M302.092,541.725"/>
		<path fill="#F79621" d="M298.52,563.029l-92.58-102.476l95.84-183.666l187.262,42.297l-17.721,148.635L298.52,563.029
			L298.52,563.029z M246.861,455.332l58.807,65.089l134.08-73.874L451.8,345.492l-132.055-29.826L246.861,455.332L246.861,455.332z
			 M246.861,455.332"/>
		<path fill="#F79621" d="M710.07,765.181L600.062,734.18l-10.541-143.571l147.644-59.06l86.673,108.666L710.07,765.181z
			 M710.07,765.181"/>
		<path fill="#F79621" d="M715.548,784.315l-131.505-37.049l-12.319-167.774l170.833-68.336l103.523,129.787L715.548,784.315
			L715.548,784.315z M616.078,721.102l88.514,24.94l97.004-106.555l-69.823-87.539l-124.46,49.779L616.078,721.102L616.078,721.102z
			 M616.078,721.102"/>
		<path fill="#F79621" d="M895.393,225.272l-105.859,47.28l-122.143-71.984L688.625,71.38L895.393,225.272z M895.393,225.272"/>
		<path fill="#F79621" d="M788.468,291.576l-139.666-82.308l23.109-140.63l33.424,5.488l-19.354,117.743l104.626,61.656
			l97.883-43.718l13.811,30.924L788.468,291.576z M788.468,291.576"/>
		<path fill="#F79621" d="M182.905,797.599l69.813-52.871l131.209,81.366l-8.797,90.491L182.905,797.599z M182.905,797.599"/>
		<path fill="#F79621" d="M391.986,918.228l-33.711-3.281l7.779-80.013l-112.377-69.688l-60.546,45.852L172.681,784.1l79.083-59.89
			L401.8,817.25L391.986,918.228z M391.986,918.228"/>
		<path fill="#F79621" d="M372.949,32.72l-7.321,60.487l-56.194,81.296l-85.707-15.067L372.949,32.72z M372.949,32.72"/>
		<path fill="#F79621" d="M317.196,193.06l-96.4-16.946l5.861-33.354l75.02,13.186l47.646-68.922l6.815-56.335l33.623,4.067
			l-7.82,64.64L317.196,193.06z M317.196,193.06"/>
	</g>
</g>
</svg>
