<?xml version="1.0" encoding="utf-8"?>
<!-- Generator: Adobe Illustrator 17.0.0, SVG Export Plug-In . SVG Version: 6.00 Build 0)  -->
<!DOCTYPE svg PUBLIC "-//W3C//DTD SVG 1.1//EN" "http://www.w3.org/Graphics/SVG/1.1/DTD/svg11.dtd">
<svg version="1.1" id="图形" xmlns="http://www.w3.org/2000/svg" xmlns:xlink="http://www.w3.org/1999/xlink" x="0px" y="0px"
	 width="1000.636px" height="1000.678px" viewBox="15.167 -16.333 1000.636 1000.678"
	 enable-background="new 15.167 -16.333 1000.636 1000.678" xml:space="preserve">
<g>
	<g>
		<path fill="#E65F4B" d="M329.616,976.437c0-45.106,0.007-90.212-0.002-135.318c-0.006-28.363-7.409-38.795-34.042-48.836
			c-9.58-3.612-19.313-7.118-28.302-11.931c-19.821-10.613-29.591-27.61-29.707-50.931c92.411,0,184.416,0,276.608,0
			c-0.015,30.66-17.447,47.434-43.293,57.878c-9.523,3.848-19.448,6.949-28.459,11.758c-13.37,7.135-20.43,17.903-20.171,34.334
			c0.752,47.671,0.266,95.362,0.266,143.046C391.548,976.437,360.582,976.437,329.616,976.437z"/>
		<g>
			<g>
				<path fill="#E65F4B" d="M375.866,697.072c-195.637,0-354.797-159.159-354.797-354.797c0-195.637,159.16-354.797,354.797-354.797
					s354.797,159.16,354.797,354.797C730.663,537.912,571.503,697.072,375.866,697.072z M375.866-0.889
					c-189.218,0-343.164,153.946-343.164,343.164s153.946,343.164,343.164,343.164S719.03,531.493,719.03,342.275
					S565.085-0.889,375.866-0.889z"/>
			</g>
			<g>
				<circle fill="#E65F4B" cx="299.886" cy="361.242" r="38.125"/>
			</g>
			<g>
				<circle fill="#E65F4B" cx="401.552" cy="362.184" r="38.125"/>
			</g>
			<g>
				<circle fill="#E65F4B" cx="501.337" cy="361.242" r="38.125"/>
			</g>
			<g>
				<circle fill="#E65F4B" cx="453.098" cy="454.258" r="38.125"/>
			</g>
			<g>
				<ellipse fill="#E65F4B" cx="396.551" cy="536.914" rx="37.047" ry="31.737"/>
			</g>
			<g>
				<ellipse fill="#E65F4B" cx="390.377" cy="653.795" rx="29.573" ry="14.949"/>
			</g>
			<g>
				
					<ellipse transform="matrix(0.9889 0.1485 -0.1485 0.9889 105.3295 -43.95)" fill="#E65F4B" cx="346.928" cy="683.25" rx="25.998" ry="9.526"/>
			</g>
			<g>
				
					<ellipse transform="matrix(0.945 0.327 -0.327 0.945 234.7301 -52.9306)" fill="#E65F4B" cx="274.771" cy="671.58" rx="25.998" ry="8.317"/>
			</g>
			<g>
				
					<ellipse transform="matrix(0.9886 -0.1504 0.1504 0.9886 -96.7356 72.4962)" fill="#E65F4B" cx="430.999" cy="675.894" rx="25.998" ry="11.049"/>
			</g>
			<g>
				<ellipse fill="#E65F4B" cx="300.357" cy="540.164" rx="37.048" ry="31.736"/>
			</g>
			<g>
				<ellipse fill="#E65F4B" cx="351.704" cy="605.809" rx="37.048" ry="28.487"/>
			</g>
			<g>
				
					<ellipse transform="matrix(0.9512 0.3085 -0.3085 0.9512 215.6362 -64.3831)" fill="#E65F4B" cx="311.407" cy="649.682" rx="29.576" ry="16.432"/>
			</g>
			<g>
				<ellipse fill="#E65F4B" cx="433.599" cy="606.348" rx="32.498" ry="29.137"/>
			</g>
			<g>
				
					<ellipse transform="matrix(0.953 0.303 -0.303 0.953 185.9629 -122.5526)" fill="#E65F4B" cx="487.982" cy="538.103" rx="30.093" ry="34.175"/>
			</g>
			<g>
				<circle fill="#E65F4B" cx="353.654" cy="462.057" r="38.125"/>
			</g>
			<g>
				<circle fill="#E65F4B" cx="259.41" cy="454.258" r="38.125"/>
			</g>
			<g>
				<ellipse fill="#E65F4B" cx="655.72" cy="354.653" rx="23.064" ry="34.359"/>
			</g>
			<g>
				<ellipse fill="#E65F4B" cx="127.146" cy="366.891" rx="28.241" ry="34.359"/>
			</g>
			<g>
				
					<ellipse transform="matrix(-0.9915 0.1297 -0.1297 -0.9915 174.5357 712.0565)" fill="#E65F4B" cx="64.075" cy="361.713" rx="17.886" ry="33.889"/>
			</g>
			<g>
				
					<ellipse transform="matrix(-0.9794 0.2019 -0.2019 -0.9794 281.7052 842.8874)" fill="#E65F4B" cx="97.873" cy="435.808" rx="17.886" ry="33.889"/>
			</g>
			<g>
				
					<ellipse transform="matrix(-0.8436 0.537 -0.537 -0.8436 527.2624 865.14)" fill="#E65F4B" cx="137.622" cy="509.367" rx="19.307" ry="33.889"/>
			</g>
			<g>
				
					<ellipse transform="matrix(-0.9794 0.2019 -0.2019 -0.9794 180.1358 826.9642)" fill="#E65F4B" cx="47.901" cy="422.667" rx="12.691" ry="24.046"/>
			</g>
			<g>
				
					<ellipse transform="matrix(-0.9529 0.3031 -0.3031 -0.9529 308.7271 934.3677)" fill="#E65F4B" cx="81.849" cy="491.143" rx="11.182" ry="24.046"/>
			</g>
			<g>
				
					<ellipse transform="matrix(-0.9975 0.0702 -0.0702 -0.9975 93.8464 719.6149)" fill="#E65F4B" cx="34.273" cy="361.457" rx="6.083" ry="26.815"/>
			</g>
			<g>
				<path fill="#E65F4B" d="M723.863,350.533c-0.828,15.559-8.167,29.776-16.392,31.754c-8.224,1.978-14.22-9.031-13.392-24.59
					s8.167-29.776,16.392-31.754C718.696,323.965,724.691,334.974,723.863,350.533z"/>
			</g>
			<g>
				<path fill="#E65F4B" d="M691.687,430.777c-3.786,15.908-13.749,29.065-22.252,29.388c-8.503,0.322-12.327-12.312-8.541-28.22
					c3.786-15.908,13.749-29.065,22.253-29.388C691.65,402.235,695.474,414.869,691.687,430.777z"/>
			</g>
			<g>
				<path fill="#E65F4B" d="M718.057,425.937c-2.257,12.496-8.576,22.74-14.116,22.881c-5.54,0.141-8.201-9.874-5.945-22.37
					c2.257-12.495,8.577-22.74,14.116-22.88C717.652,403.426,720.314,413.442,718.057,425.937z"/>
			</g>
			<g>
				<ellipse fill="#E65F4B" cx="206.33" cy="362.184" rx="30.233" ry="36.242"/>
			</g>
			<g>
				<ellipse fill="#E65F4B" cx="171.016" cy="443.859" rx="30.233" ry="36.242"/>
			</g>
			<g>
				
					<ellipse transform="matrix(0.7936 -0.6084 0.6084 0.7936 -279.4035 240.7666)" fill="#E65F4B" cx="215.213" cy="532.253" rx="27.83" ry="33.698"/>
			</g>
			<g>
				
					<ellipse transform="matrix(0.4451 -0.8955 0.8955 0.4451 -391.073 558.1682)" fill="#E65F4B" cx="254.861" cy="594.649" rx="27.83" ry="33.698"/>
			</g>
			<g>
				<path fill="#E65F4B" d="M516.044,570.4c-15.138,8.132-22.708,25-16.91,37.675c5.798,12.674,22.771,16.357,37.907,8.224
					c15.137-8.133,22.708-25,16.909-37.675C548.153,565.948,531.181,562.267,516.044,570.4z"/>
			</g>
			<g>
				<path fill="#E65F4B" d="M589.478,553.489c-13.305,8.284-22.533,24.297-20.61,35.766c1.922,11.469,14.266,14.052,27.571,5.768
					c13.305-8.284,22.532-24.297,20.61-35.766C615.127,547.787,602.783,545.204,589.478,553.489z"/>
			</g>
			<g>
				<path fill="#E65F4B" d="M125.486,542.888c10.045,8.379,16.881,21.388,15.27,29.055c-1.611,7.668-11.06,7.091-21.104-1.288
					c-10.045-8.379-16.881-21.388-15.27-29.055C105.993,533.932,115.442,534.509,125.486,542.888z"/>
			</g>
			<g>
				<path fill="#E65F4B" d="M171.636,599.715c11.356,6.492,20.681,17.537,20.828,24.671c0.146,7.134-8.941,7.654-20.297,1.163
					c-11.356-6.492-20.681-17.537-20.827-24.671C151.193,593.743,160.28,593.223,171.636,599.715z"/>
			</g>
			<g>
				<path fill="#E65F4B" d="M229.445,619.382c14.543,6.459,27.334,18.345,28.568,26.549c1.235,8.203-9.555,9.617-24.098,3.158
					c-14.544-6.459-27.334-18.346-28.569-26.549C204.112,614.337,214.901,612.923,229.445,619.382z"/>
			</g>
			<g>
				<path fill="#E65F4B" d="M549.145,616.132c-14.544,6.46-27.334,18.346-28.569,26.549c-1.234,8.203,9.555,9.617,24.098,3.158
					c14.544-6.46,27.334-18.346,28.569-26.549S563.688,609.673,549.145,616.132z"/>
			</g>
			<g>
				<path fill="#E65F4B" d="M481.985,632.053c-15.082,3.169-29.621,11.835-32.473,19.355c-2.852,7.521,7.063,11.049,22.145,7.881
					c15.083-3.169,29.621-11.834,32.474-19.355C506.982,632.413,497.068,628.885,481.985,632.053z"/>
			</g>
			<g>
				
					<ellipse transform="matrix(0.6019 -0.7985 0.7985 0.6019 -392.5312 376.8994)" fill="#E65F4B" cx="181.78" cy="582.175" rx="18.663" ry="30.383"/>
			</g>
			<g>
				<path fill="#E65F4B" d="M619.986,503.305c-6.474,13.197-3.565,27.276,6.496,31.447c10.061,4.172,23.465-3.144,29.939-16.34
					c6.474-13.197,3.565-27.276-6.496-31.447S626.46,490.109,619.986,503.305z"/>
			</g>
			<g>
				<path fill="#E65F4B" d="M671.145,481.803c-3.885,13.167-0.864,24.138,6.747,24.505c7.611,0.366,16.931-10.01,20.816-23.178
					c3.885-13.168,0.864-24.138-6.747-24.505C684.349,458.259,675.03,468.636,671.145,481.803z"/>
			</g>
			<g>
				<ellipse fill="#E65F4B" cx="584.756" cy="361.242" rx="30.233" ry="36.242"/>
			</g>
			<g>
				
					<ellipse transform="matrix(0.9534 0.3018 -0.3018 0.9534 161.1734 -143.9368)" fill="#E65F4B" cx="546.409" cy="449.637" rx="30.233" ry="36.242"/>
			</g>
			<g>
				
					<ellipse transform="matrix(0.8913 0.4533 -0.4533 0.8913 298.6651 -201.9783)" fill="#E65F4B" cx="570.659" cy="522.026" rx="25.889" ry="33.759"/>
			</g>
			<g>
				
					<ellipse transform="matrix(0.9534 0.3018 -0.3018 0.9534 162.8274 -165.5533)" fill="#E65F4B" cx="617.198" cy="444.186" rx="26.417" ry="35.142"/>
			</g>
			<g>
				<g>
					<circle fill="#E65F4B" cx="355.426" cy="275.579" r="38.125"/>
				</g>
				<g>
					<circle fill="#E65F4B" cx="447.679" cy="269.93" r="38.125"/>
				</g>
				<g>
					<circle fill="#E65F4B" cx="541.815" cy="265.224" r="36.242"/>
				</g>
				<g>
					<ellipse fill="#E65F4B" cx="93.257" cy="283.58" rx="23.534" ry="33.889"/>
				</g>
				<g>
					
						<ellipse transform="matrix(0.9684 0.2494 -0.2494 0.9684 55.2303 -26.103)" fill="#E65F4B" cx="130.627" cy="204.907" rx="23.534" ry="33.889"/>
				</g>
				<g>
					
						<ellipse transform="matrix(0.9379 0.3468 -0.3468 0.9379 79.7727 -60.9003)" fill="#E65F4B" cx="210.024" cy="192.412" rx="29.94" ry="35.578"/>
				</g>
				<g>
					<path fill="#E65F4B" d="M620.649,212.65c4.894,17.246,18.995,28.872,31.495,25.967c12.5-2.905,18.666-19.24,13.772-36.486
						c-4.894-17.246-18.994-28.872-31.495-25.967C621.921,179.069,615.755,195.404,620.649,212.65z"/>
				</g>
				<g>
					<path fill="#E65F4B" d="M704.217,213.212c-2.531-13.191-10.497-21.856-17.793-19.352c-7.295,2.504-11.157,15.227-8.625,28.419
						c2.531,13.191,10.497,21.855,17.793,19.352C702.887,239.126,706.749,226.403,704.217,213.212z"/>
				</g>
				<g>
					<path fill="#E65F4B" d="M723.891,286.386c-1.678-11.687-6.959-19.363-11.795-17.145c-4.836,2.218-7.395,13.491-5.717,25.178
						c1.678,11.687,6.959,19.363,11.795,17.145C723.009,309.345,725.569,298.073,723.891,286.386z"/>
				</g>
				<g>
					<path fill="#E65F4B" d="M551.999,197.32c7.133,19.517,24.646,31.94,39.116,27.747c14.47-4.194,20.418-23.415,13.285-42.932
						c-7.133-19.517-24.647-31.94-39.117-27.747C550.813,158.581,544.865,177.802,551.999,197.32z"/>
				</g>
				<g>
					<ellipse fill="#E65F4B" cx="679.724" cy="284.992" rx="18.827" ry="32.477"/>
				</g>
				<g>
					<ellipse fill="#E65F4B" cx="620.889" cy="277.461" rx="27.77" ry="34.359"/>
				</g>
				<g>
					
						<ellipse transform="matrix(-0.9891 -0.147 0.147 -0.9891 58.3554 576.2353)" fill="#E65F4B" cx="50.473" cy="285.961" rx="9.762" ry="25.449"/>
				</g>
				<g>
					
						<ellipse transform="matrix(-0.9457 -0.325 0.325 -0.9457 78.2008 441.9855)" fill="#E65F4B" cx="76.018" cy="214.461" rx="12.783" ry="27.263"/>
				</g>
				<g>
					<ellipse fill="#E65F4B" cx="159.262" cy="279.344" rx="30.233" ry="36.242"/>
				</g>
				<g>
					<circle fill="#E65F4B" cx="257.054" cy="277.932" r="38.125"/>
				</g>
				<g>
					<circle fill="#E65F4B" cx="308.191" cy="191.392" r="38.125"/>
				</g>
				<g>
					<circle fill="#E65F4B" cx="402.599" cy="187.458" r="38.125"/>
				</g>
				<g>
					<ellipse fill="#E65F4B" cx="352.117" cy="113.032" rx="32.639" ry="29.289"/>
				</g>
				<g>
					<ellipse fill="#E65F4B" cx="383.986" cy="49.189" rx="32.639" ry="20.355"/>
				</g>
				<g>
					<path fill="#E65F4B" d="M283.448,95.888c-11.661-9.841-30.299-6.559-41.629,7.331c-11.33,13.89-11.061,33.129,0.6,42.97
						c11.661,9.841,30.299,6.559,41.629-7.331C295.378,124.967,295.109,105.729,283.448,95.888z"/>
				</g>
				<g>
					<path fill="#E65F4B" d="M197.791,108.287c-5.536-9.606-19.638-7.216-31.499,5.336c-11.861,12.553-16.989,30.515-11.454,40.121
						c5.535,9.606,19.638,7.216,31.499-5.336C198.198,135.854,203.326,117.892,197.791,108.287z"/>
				</g>
				<g>
					<path fill="#E65F4B" d="M137.803,117.659c-2.91-7.903-13.752-4.815-24.216,6.898s-16.588,27.615-13.678,35.519
						c2.91,7.903,13.752,4.815,24.216-6.898C134.589,141.464,140.713,125.562,137.803,117.659z"/>
				</g>
				<g>
					<path fill="#E65F4B" d="M189.253,68.376c-1.141-7.366-11.053-7.024-22.142,0.765c-11.088,7.789-19.151,20.075-18.011,27.441
						c1.141,7.366,11.053,7.024,22.142-0.765C182.33,88.028,190.394,75.742,189.253,68.376z"/>
				</g>
				<g>
					<path fill="#E65F4B" d="M253.099,53.386c-1.333-7.366-12.905-7.023-25.851,0.765c-12.945,7.789-22.36,20.075-21.028,27.441
						c1.331,7.366,12.905,7.024,25.85-0.765C245.016,73.039,254.43,60.753,253.099,53.386z"/>
				</g>
				<g>
					<path fill="#E65F4B" d="M298.799,17.352c1.819-7.229-7.445-10.774-20.691-7.919s-25.459,11.03-27.277,18.259
						c-1.819,7.229,7.445,10.774,20.691,7.919C284.769,32.756,296.98,24.581,298.799,17.352z"/>
				</g>
				<g>
					<path fill="#E65F4B" d="M372.759,14.842c3.917-6.342-3.844-12.519-17.334-13.797c-13.49-1.277-27.601,2.828-31.518,9.171
						c-3.916,6.343,3.845,12.52,17.334,13.798C354.732,25.291,368.843,21.185,372.759,14.842z"/>
				</g>
				<g>
					<path fill="#E65F4B" d="M339.817,61.736c4.698-11.034-5.596-22.388-22.993-25.36c-17.397-2.972-35.309,3.564-40.008,14.598
						c-4.698,11.034,5.596,22.388,22.993,25.36S335.119,72.77,339.817,61.736z"/>
				</g>
				<g>
					<path fill="#E65F4B" d="M494.002,68.239c7.148-9.63-0.206-23.076-16.425-30.034c-16.22-6.958-35.164-4.792-42.312,4.838
						c-7.149,9.63,0.205,23.076,16.425,30.034C467.909,80.035,486.853,77.868,494.002,68.239z"/>
				</g>
				<g>
					<path fill="#E65F4B" d="M445.532,23.755c6.043-5.601,0.022-14.689-13.451-20.297c-13.472-5.608-29.293-5.615-35.337-0.013
						c-6.043,5.601-0.021,14.689,13.452,20.297C423.668,29.35,439.489,29.356,445.532,23.755z"/>
				</g>
				<g>
					<path fill="#E65F4B" d="M522.958,37.911c6.248-4.576,0.664-13.329-12.474-19.549c-13.138-6.221-28.854-7.554-35.103-2.978
						c-6.248,4.576-0.664,13.328,12.474,19.549C500.993,41.153,516.709,42.487,522.958,37.911z"/>
				</g>
				<g>
					<path fill="#E65F4B" d="M626.914,112.034c7.135-1.647,4.584-11.259-5.697-21.47c-10.281-10.211-24.4-17.154-31.535-15.507
						c-7.135,1.647-4.585,11.259,5.696,21.47C605.661,106.738,619.779,113.68,626.914,112.034z"/>
				</g>
				<g>
					<path fill="#E65F4B" d="M561.814,91.95c7.622-2.345,5.647-12.781-4.411-23.312c-10.058-10.53-24.391-17.166-32.013-14.822
						c-7.622,2.345-5.647,12.782,4.411,23.312C539.859,87.659,554.191,94.295,561.814,91.95z"/>
				</g>
				<g>
					<path fill="#E65F4B" d="M577.922,65.653c5.707,0.399,1.469-6.796-9.466-16.07c-10.935-9.274-24.426-17.116-30.134-17.514
						c-5.707-0.399-1.469,6.796,9.466,16.07C558.723,57.413,572.215,65.255,577.922,65.653z"/>
				</g>
				<g>
					<path fill="#E65F4B" d="M417.631,87.136c12.181-9.415,32.07-5.766,44.424,8.15c12.353,13.916,12.493,32.831,0.313,42.246
						c-12.181,9.415-32.07,5.766-44.423-8.15C405.59,115.465,405.45,96.551,417.631,87.136z"/>
				</g>
				<g>
					<path fill="#E65F4B" d="M498.927,93.036c12.181-9.415,32.07-5.766,44.423,8.15c12.353,13.917,12.493,32.831,0.313,42.246
						c-12.181,9.415-32.07,5.766-44.423-8.15C486.886,121.366,486.746,102.451,498.927,93.036z"/>
				</g>
				<g>
					<path fill="#E65F4B" d="M580.037,109.704c10.496-5.667,26.655-0.632,36.093,11.248c9.438,11.88,8.58,26.105-1.916,31.772
						c-10.496,5.667-26.655,0.632-36.093-11.248C568.683,129.597,569.541,115.372,580.037,109.704z"/>
				</g>
				<g>
					<path fill="#E65F4B" d="M645.035,131.976c9.015,0.297,19.562,10.109,23.557,21.919c3.995,11.808-0.074,21.141-9.09,20.845
						c-9.015-0.297-19.562-10.11-23.556-21.919C631.95,141.012,636.02,131.679,645.035,131.976z"/>
				</g>
				<g>
					<circle fill="#E65F4B" cx="491.107" cy="187.458" r="38.125"/>
				</g>
			</g>
		</g>
	</g>
</g>
</svg>
