<?xml version="1.0" encoding="utf-8"?>
<!-- Generator: Adobe Illustrator 17.0.0, SVG Export Plug-In . SVG Version: 6.00 Build 0)  -->
<!DOCTYPE svg PUBLIC "-//W3C//DTD SVG 1.1//EN" "http://www.w3.org/Graphics/SVG/1.1/DTD/svg11.dtd">
<svg version="1.1" id="图形" xmlns="http://www.w3.org/2000/svg" xmlns:xlink="http://www.w3.org/1999/xlink" x="0px" y="0px"
	 width="1000.636px" height="1000.678px" viewBox="15.167 -16.333 1000.636 1000.678"
	 enable-background="new 15.167 -16.333 1000.636 1000.678" xml:space="preserve">
<g>
	<g>
		<path fill="#45B99D" d="M1008.183,434.64c0.6,0,1.199-0.093,1.799-0.093C985.849,189.714,784.106-2.381,535.388-12.444
			C549.491,236.744,755.462,434.64,1008.183,434.64L1008.183,434.64z M1008.274,498.231c-287.478,0-521.586-225.746-536.315-509.568
			C226.65,9.794,32.73,208.954,19.166,456.408c289.779,2.647,524.335,234.42,532.092,522.974
			c253.033-18.23,453.268-225.406,460.523-481.307C1010.581,498.074,1009.442,498.231,1008.274,498.231L1008.274,498.231z
			 M19.609,520.091C37.553,768.647,237.82,966.067,487.543,979.824C480.035,726.408,274.155,523.023,19.609,520.091L19.609,520.091z
			 M19.609,520.091"/>
	</g>
</g>
</svg>
