<?xml version="1.0" encoding="utf-8"?>
<!-- Generator: Adobe Illustrator 17.0.0, SVG Export Plug-In . SVG Version: 6.00 Build 0)  -->
<!DOCTYPE svg PUBLIC "-//W3C//DTD SVG 1.1//EN" "http://www.w3.org/Graphics/SVG/1.1/DTD/svg11.dtd">
<svg version="1.1" id="图形" xmlns="http://www.w3.org/2000/svg" xmlns:xlink="http://www.w3.org/1999/xlink" x="0px" y="0px"
	 width="1000.636px" height="1000.678px" viewBox="15.167 -16.333 1000.636 1000.678"
	 enable-background="new 15.167 -16.333 1000.636 1000.678" xml:space="preserve">
<g>
	<path fill="#FFFFFF" d="M796.752,117.214c0-19.042-13.579-34.484-30.317-34.484H264.529c-16.749,0-30.318,15.442-30.318,34.484
		v139.944h562.541V117.214L796.752,117.214z M528.927,126.751h54.826v19.067h-54.826V126.751L528.927,126.751z M454.011,126.751
		h54.828v19.067h-54.828V126.751L454.011,126.751z M390.357,201.66H267.282v-20.429h123.075V201.66L390.357,201.66L390.357,201.66z
		 M390.357,169.944H267.282v-57.677h123.075V169.944L390.357,169.944L390.357,169.944z M483.43,201.66h-32.05v-31.846h32.05V201.66
		L483.43,201.66L483.43,201.66z M535.925,201.66h-32.047v-31.846h32.047V201.66L535.925,201.66z M588.429,201.66h-32.051v-31.846
		h32.051V201.66L588.429,201.66z M695.209,223.511c-29.139,0-52.755-23.454-52.755-52.402c0-28.937,23.616-52.412,52.755-52.412
		c29.12,0,52.733,23.475,52.733,52.412C747.942,200.058,724.329,223.511,695.209,223.511L695.209,223.511z M695.209,223.511"/>
	<path fill="#FFFFFF" d="M695.209,152.068c-10.59,0-19.165,8.519-19.165,19.041c0,10.519,8.578,19.042,19.165,19.042
		c10.571,0,19.164-8.522,19.164-19.042C714.373,160.583,705.781,152.068,695.209,152.068L695.209,152.068z M695.209,152.068"/>
	<path fill="#FFFFFF" d="M232.591,295.156v526.117h565.789V295.156H232.591L232.591,295.156z M515.485,713.468
		c-80.248,0-145.307-64.643-145.307-144.37c0-79.726,65.059-144.356,145.307-144.356s145.307,64.63,145.307,144.356
		C660.792,648.825,595.733,713.468,515.485,713.468L515.485,713.468z M515.485,713.468"/>
	<path fill="#FFFFFF" d="M576.769,531.353c0,0-12.967,12.889-32.96,12.889c-20.006,0-26.666-12.889-26.666-12.889
		s-7.395,12.889-27.758,12.889c-20.369,0-28.508-12.153-28.508-12.153s-14.079,12.153-33.336,12.153
		c-12.611,0-21.541-8.685-26.215-14.671c-4.342,12.4-6.73,25.672-6.73,39.526c0,66.348,54.12,120.11,120.888,120.11
		c66.774,0,120.877-53.762,120.877-120.11c0-11.477-1.655-22.57-4.663-33.078c-4.789,2.912-15.252,8.223-28.648,8.223
		C584.548,544.243,576.769,531.353,576.769,531.353L576.769,531.353z M576.769,531.353"/>
</g>
</svg>
