<?xml version="1.0" encoding="utf-8"?>
<!-- Generator: Adobe Illustrator 17.0.0, SVG Export Plug-In . SVG Version: 6.00 Build 0)  -->
<!DOCTYPE svg PUBLIC "-//W3C//DTD SVG 1.1//EN" "http://www.w3.org/Graphics/SVG/1.1/DTD/svg11.dtd">
<svg version="1.1" id="图形" xmlns="http://www.w3.org/2000/svg" xmlns:xlink="http://www.w3.org/1999/xlink" x="0px" y="0px"
	 width="1000.636px" height="1000.678px" viewBox="15.167 -16.333 1000.636 1000.678"
	 enable-background="new 15.167 -16.333 1000.636 1000.678" xml:space="preserve">
<g>
	<path fill="#FFFFFF" d="M246.496,235.822c0,0-11.249,318.83,114.626,496.474c125.879,177.635,276.141,38.044,308.638-8.331
		c36.668-52.314,132.947-225.613,114.446-488.484C492.448,392.19,246.496,235.822,246.496,235.822L246.496,235.822z
		 M326.645,435.179c10.237-34.98,132.484-43.116,144.305,42.233L326.645,435.179L326.645,435.179z M402.947,627.761
		c40.036,27.222,141.452,52.547,223.327,0.622C535.85,775.195,419.22,683.899,402.947,627.761L402.947,627.761z M557.001,474.916
		c-9.939-34.287,86.742-105.28,141.384-40.984L557.001,474.916L557.001,474.916z M557.001,474.916"/>
	<ellipse fill="#FFFFFF" cx="515.569" cy="237.124" rx="269.477" ry="111.559"/>
</g>
</svg>
