<?xml version="1.0" encoding="utf-8"?>
<!-- Generator: Adobe Illustrator 17.0.0, SVG Export Plug-In . SVG Version: 6.00 Build 0)  -->
<!DOCTYPE svg PUBLIC "-//W3C//DTD SVG 1.1//EN" "http://www.w3.org/Graphics/SVG/1.1/DTD/svg11.dtd">
<svg version="1.1" id="图形" xmlns="http://www.w3.org/2000/svg" xmlns:xlink="http://www.w3.org/1999/xlink" x="0px" y="0px"
	 width="1000.636px" height="1000.678px" viewBox="15.167 -16.333 1000.636 1000.678"
	 enable-background="new 15.167 -16.333 1000.636 1000.678" xml:space="preserve">
<g>
	<g>
		<path fill="#FFFFFF" d="M368.442,403.884c0,0-72.705,150.177,84.957,157.705c157.661,7.527,255.048-13.822,209.533-157.027
			c0,0-29.071-57.45-150.769-23.029l-13.811-5.676L376.718,267.803l0.032-49.585c0,0-35.488,0.868-39.766,23.226
			c0,0-12.578,45.344-14.912,51.902c-2.333,6.558-53.699,54.832-56.927,73.928c-3.234,19.094,11.805,95.906,112.922,8.84
			L368.442,403.884z"/>
		<polygon fill="#FFFFFF" points="371.157,531.062 318.253,668.885 347.265,686.063 432.95,559.653 		"/>
		<polygon fill="#FFFFFF" points="579.827,557.587 643.031,533.892 670.21,708.657 630.615,714.814 		"/>
		<path fill="#FFFFFF" d="M228.274,598.401c0,0,83.048,105.653,235.434,119.133c152.392,13.484,217.547-5.95,261.714-40.703
			c44.171-34.76,111.554-59.712,105.076,8.177c0,0-35.736,19.242-57.481,8.943c0,0-81.689,132.266-249.535,128.938
			c-167.852-3.331-238.103-103.002-268.004-139.224c-15.076-18.261-34.753-13.19-34.753-13.19s-28.756,2.589-36.164-44.315
			C181.051,603.949,219.716,588.684,228.274,598.401z"/>
		<path fill="#FFFFFF" d="M666.336,413.036c0,0,12.883-14.639,20.86-12.09c7.971,2.55,7.971,2.55,7.971,2.55
			s9.725-26.77,25.406-15.316c0,0,6.28-16.517,18.194,3.292c0,0,12.571-24.845,25.81-4.626c0,0,22.215-11.488,27.284,12.982
			c0,0,33.757-10.308,32.776,23.953c0,0,16.088,5.978,7.885,18.169c0,0,19.847,13.931,1.668,26.973c0,0,18.126,10.993-3.001,21.324
			c0,0,13.067,35.318-24.799,27.319c0,0,0.112,25.125-32.832,8.2c0,0-24.928,18.471-27.996-1.264c0,0-12.854-9.562,1.757-21.214
			c0,0-22.265-5.117-1.938-12.468c0,0-20.785-11.881-10.984-30.045c0,0-19.007,7.781-21.499-8.251c0,0-39.779-4.639-42.018-18.212
			L666.336,413.036z"/>
		<path fill="#FFFFFF" d="M324.477,285.577c0,0-28.069-16.126-6.638-42.703c0,0,7.951-25.684,23.967-11.302
			c0,0,23.301-18.514,22.953,19.113c0,0,27.939-29.518,39.331-6.116c0,0,35.657-8.95,31.197,31.171c0,0,35.301-8.588,18.336,25.036
			c0,0,44.19-11.523,30.873,32.384c0,0,35.95-7.933,27.572,27.851c0,0,19.192-25.98,27.645,8.414c0,0,11.707,35.409-36.377,25.088
			c0,0-58.804,7.116-42.296-27.478c0.629-1.327,1.376-2.72,2.239-4.173c0,0-48.205,12.08-43.732-28.897
			c0,0-48.313-1.784-38.122-35.906c0,0-49.723,15.663-59.352-4.712"/>
		
			<path fill="#FFFFFF" stroke="#777773" stroke-width="0.5" stroke-linecap="round" stroke-linejoin="round" stroke-miterlimit="10" d="
			M685.188,139.261"/>
		
			<path fill="#FFFFFF" stroke="#777773" stroke-width="0.5" stroke-linecap="round" stroke-linejoin="round" stroke-miterlimit="10" d="
			M341.098,327.708"/>
		
			<path fill="#FFFFFF" stroke="#777773" stroke-width="0.5" stroke-linecap="round" stroke-linejoin="round" stroke-miterlimit="10" d="
			M308.946,330.159"/>
	</g>
</g>
</svg>
