<?xml version="1.0" encoding="utf-8"?>
<!-- Generator: Adobe Illustrator 17.0.0, SVG Export Plug-In . SVG Version: 6.00 Build 0)  -->
<!DOCTYPE svg PUBLIC "-//W3C//DTD SVG 1.1//EN" "http://www.w3.org/Graphics/SVG/1.1/DTD/svg11.dtd">
<svg version="1.1" id="图形" xmlns="http://www.w3.org/2000/svg" xmlns:xlink="http://www.w3.org/1999/xlink" x="0px" y="0px"
	 width="1000.636px" height="1000.678px" viewBox="15.167 -16.333 1000.636 1000.678"
	 enable-background="new 15.167 -16.333 1000.636 1000.678" xml:space="preserve">
<g>
	<path fill="#FFFFFF" d="M168.066,441.957V733.82c0,45.84,154.734,83.019,345.621,83.019c190.879,0,345.609-37.179,345.609-83.019
		V441.957"/>
	<path fill="#FFFFFF" d="M164.023,546.714c0,0,64.649-22.519,122.672,57.95c58.023,80.468,137.254,8.589,137.254,8.589
		s87.781-64.734,156.226,2.497c68.446,67.234,135.395-12.891,135.395-12.891s69.769-95.836,131.215-74.383
		c0.359,8.707,0.004-7.668,0,0c-61.449-21.453-131.215,74.383-131.215,74.383s-66.949,80.125-135.395,12.891
		c-68.445-67.231-156.226-2.497-156.226-2.497s-79.231,71.879-137.254-8.589C228.672,524.195,164.023,546.714,164.023,546.714"/>
	<path fill="#FFFFFF" d="M320.515,227.777h4.25c13.899,0,25.168,11.055,25.168,24.691v171.668c0,13.637-11.269,17.852-25.168,17.852
		h-4.25c-13.898,0-25.168-4.215-25.168-17.852V252.468C295.347,238.832,306.617,227.777,320.515,227.777"/>
	<path fill="#FFFFFF" d="M520.664,227.777h4.25c13.898,0,25.168,11.055,25.168,24.691v171.668c0,13.637-11.27,17.852-25.168,17.852
		h-4.25c-13.899,0-25.168-4.215-25.168-17.852V252.468C495.496,238.832,506.765,227.777,520.664,227.777"/>
	<path fill="#FFFFFF" d="M732.039,375.668v65.839c0,17.688-19.387,36.184-43.301,36.184h-4.383
		c-23.91,0-43.297-18.012-43.297-35.703v-81.141c-23.308-2.695-47.609-4.828-72.781-6.144v86.804
		c0,17.688-19.387,36.184-43.301,36.184h-4.379c-23.91,0-43.297-18.012-43.297-35.703v-88.676
		c-38.519,0.738-75.3,2.957-109.171,6.52v81.675c0,17.688-19.387,36.184-43.301,36.184h-4.379
		c-23.914,0-43.301-18.012-43.301-35.703v-68.004c-69.754,15.059-113.914,36.867-113.914,61.219
		c0,45.414,152.719,82.23,341.105,82.23c188.391,0,355.063-30.027,355.063-75.445C859.406,416.992,808.859,392.582,732.039,375.668"
		/>
	<path fill="#FFFFFF" d="M684.422,227.777h4.253c13.899,0,25.164,11.055,25.164,24.691v171.668
		c0,13.637-11.265,17.852-25.164,17.852h-4.253c-13.899,0-25.165-4.215-25.165-17.852V252.468
		C659.257,238.832,670.523,227.777,684.422,227.777"/>
	<path fill="#FFFFFF" d="M326.089,218.621c0,0,24.836-10.438-12.546-26.547c-37.379-16.086-7.813-67.117,0-71.403
		c-9.063,0,26.007,17.852,18.195,17.852c-3.316,4.41-35.086,23.332-9.102,39.094C357.363,198.683,326.089,218.621,326.089,218.621"
		/>
	<path fill="#FFFFFF" d="M526.238,218.621c0,0,24.836-10.438-12.547-26.547c-37.379-16.086-7.812-67.117,0-71.403
		c-9.062,0,26.008,17.852,18.195,17.852c-7.808,4.285-46.48,23.008-9.097,39.094C560.168,193.726,526.238,218.621,526.238,218.621"
		/>
	<path fill="#FFFFFF" d="M689.996,218.621c0,0,24.836-10.438-12.543-26.547c-37.383-16.086-7.813-67.117,0-71.403
		c-9.063,0,26.004,17.852,18.191,17.852c-7.808,4.285-46.48,23.008-9.098,39.094C723.925,193.726,689.996,218.621,689.996,218.621"
		/>
</g>
</svg>
