<?xml version="1.0" encoding="utf-8"?>
<!-- Generator: Adobe Illustrator 17.0.0, SVG Export Plug-In . SVG Version: 6.00 Build 0)  -->
<!DOCTYPE svg PUBLIC "-//W3C//DTD SVG 1.1//EN" "http://www.w3.org/Graphics/SVG/1.1/DTD/svg11.dtd">
<svg version="1.1" id="图形" xmlns="http://www.w3.org/2000/svg" xmlns:xlink="http://www.w3.org/1999/xlink" x="0px" y="0px"
	 width="1000.636px" height="1000.678px" viewBox="15.167 -16.333 1000.636 1000.678"
	 enable-background="new 15.167 -16.333 1000.636 1000.678" xml:space="preserve">
<g>
	<path fill="#FFFFFF" d="M727.542,565.891c-48.411-62.719-124.313-103.133-209.667-103.133
		c-89.184,0-168.062,44.109-216.025,111.698L87.139,481.405c71.895-166.675,237.688-283.34,430.736-283.34
		c186.737,0,347.973,109.163,423.39,267.156L727.542,565.891L727.542,565.891z M517.875,510.031
		c66.36,0,125.763,29.732,165.645,76.595l-166.214,78.286l61.417,41.162c-17.308,16.009-40.455,25.799-65.889,25.799
		c-22.667,0-43.513-7.776-60.036-20.791l57.573-46.254l-163.968-71.059C386.194,542.804,448.207,510.031,517.875,510.031
		L517.875,510.031z M517.875,510.031"/>
</g>
</svg>
