<?xml version="1.0" encoding="utf-8"?>
<!-- Generator: Adobe Illustrator 17.0.0, SVG Export Plug-In . SVG Version: 6.00 Build 0)  -->
<!DOCTYPE svg PUBLIC "-//W3C//DTD SVG 1.1//EN" "http://www.w3.org/Graphics/SVG/1.1/DTD/svg11.dtd">
<svg version="1.1" id="图形" xmlns="http://www.w3.org/2000/svg" xmlns:xlink="http://www.w3.org/1999/xlink" x="0px" y="0px"
	 width="1000.636px" height="1000.678px" viewBox="15.167 -16.333 1000.636 1000.678"
	 enable-background="new 15.167 -16.333 1000.636 1000.678" xml:space="preserve">
<g>
	<path fill="#FFFFFF" d="M702.624,342.164H548.862c13.887,0,25.199-11.293,25.199-25.219c0-13.926-11.312-25.141-25.199-25.141
		h-62.863c-13.926,0-25.219,11.215-25.219,25.141c0,13.926,11.293,25.219,25.219,25.219H332.202
		c-42.777,0-78.207,38.343-85.09,79.16h540.621C780.85,380.507,745.436,342.164,702.624,342.164L702.624,342.164z M702.624,342.164"
		/>
	<path fill="#FFFFFF" d="M789.011,464.539v-7.18H247.112h-1.277h-90.258v35.988h90.258v223.09c0,47.723,38.664,86.387,86.363,86.387
		h370.426c47.723,0,86.387-38.664,86.387-86.387V500.531h86.382v-35.992H789.011L789.011,464.539z M789.011,464.539"/>
	<path fill="#FFFFFF" d="M385.229,169.507c2.516,3.352,5.168,6.547,7.961,9.539l6.981,6.942c4.41,4.43,8.519,8.859,11.793,12.848
		c1.617,2.035,2.992,3.91,3.968,5.468c1,1.594,1.856,2.793,2.055,4.586c0.242,1.875-0.758,4.469-2.73,7.063
		c-1.938,2.554-4.711,5.027-7.883,7.543c3.793,1.433,7.961,1.914,12.371,1.433c4.367-0.558,9.195-2.511,13.246-6.703
		c4.012-4.187,6.207-10.371,6.566-15.84c0.379-5.465-0.46-10.492-1.718-14.961c-2.492-8.98-6.664-16.242-11.114-22.906
		c-2.253-3.23-4.984-6.582-6.941-9.098c-1.953-2.312-3.769-4.668-5.426-7.019c-6.742-9.379-11.453-17.879-13.226-27.813
		c-1.875-9.976,0.179-22.863,6.242-37.546c-15.738,3.312-29.766,16.48-34.332,34.875c-2.277,9.136-1.758,19.07,0.656,27.847
		C376.112,154.707,380.362,162.605,385.229,169.507L385.229,169.507z M385.229,169.507"/>
	<path fill="#FFFFFF" d="M478.577,169.507c2.516,3.352,5.188,6.547,7.941,9.539l6.985,6.942c4.386,4.43,8.496,8.859,11.828,12.848
		c1.578,2.035,2.934,3.91,3.953,5.468c0.996,1.594,1.855,2.793,2.012,4.586c0.242,1.875-0.735,4.469-2.672,7.063
		c-1.957,2.554-4.727,5.027-7.942,7.543c3.833,1.433,7.981,1.914,12.372,1.433c4.386-0.558,9.257-2.511,13.285-6.703
		c3.992-4.187,6.187-10.371,6.543-15.84c0.398-5.465-0.438-10.492-1.676-14.961c-2.531-8.98-6.703-16.242-11.172-22.906
		c-2.195-3.23-4.945-6.582-6.922-9.098c-1.933-2.312-3.769-4.668-5.406-7.019c-6.742-9.379-11.492-17.879-13.246-27.813
		c-1.836-9.976,0.156-22.863,6.222-37.546c-15.718,3.312-29.765,16.48-34.312,34.875c-2.234,9.136-1.758,19.07,0.676,27.847
		C469.44,154.707,473.671,162.605,478.577,169.507L478.577,169.507z M478.577,169.507"/>
	<path fill="#FFFFFF" d="M563.608,169.507c2.473,3.352,5.188,6.547,7.981,9.539l6.941,6.942c4.41,4.43,8.5,8.859,11.77,12.848
		c1.675,2.035,3.015,3.91,4.011,5.468c0.957,1.594,1.817,2.793,2.016,4.586c0.277,1.875-0.738,4.469-2.676,7.063
		c-1.953,2.554-4.707,5.027-7.961,7.543c3.832,1.433,8,1.914,12.371,1.433c4.411-0.558,9.278-2.511,13.286-6.703
		c4.011-4.187,6.207-10.371,6.542-15.84c0.422-5.465-0.417-10.492-1.652-14.961c-2.535-8.98-6.703-16.242-11.152-22.906
		c-2.215-3.23-4.988-6.582-6.965-9.098c-1.914-2.312-3.75-4.668-5.387-7.019c-6.742-9.379-11.492-17.879-13.207-27.813
		c-1.894-9.976,0.121-22.863,6.164-37.546c-15.718,3.312-29.746,16.48-34.297,34.875c-2.254,9.136-1.773,19.07,0.641,27.847
		C554.472,154.707,558.698,162.605,563.608,169.507L563.608,169.507z M563.608,169.507"/>
</g>
</svg>
