<?xml version="1.0" encoding="utf-8"?>
<!-- Generator: Adobe Illustrator 17.0.0, SVG Export Plug-In . SVG Version: 6.00 Build 0)  -->
<!DOCTYPE svg PUBLIC "-//W3C//DTD SVG 1.1//EN" "http://www.w3.org/Graphics/SVG/1.1/DTD/svg11.dtd">
<svg version="1.1" id="图形" xmlns="http://www.w3.org/2000/svg" xmlns:xlink="http://www.w3.org/1999/xlink" x="0px" y="0px"
	 width="1000.636px" height="1000.678px" viewBox="15.167 -16.333 1000.636 1000.678"
	 enable-background="new 15.167 -16.333 1000.636 1000.678" xml:space="preserve">
<g>
	<path fill="#FFFFFF" d="M874.557,435.573c-7.079,0-12.819,7.235-12.819,16.137v96.341c0,8.905,5.743,16.127,12.833,16.127
		c7.079,0,12.794-7.222,12.794-16.127v-96.355C887.366,442.809,881.636,435.573,874.557,435.573L874.557,435.573z M874.557,435.573"
		/>
	<path fill="#FFFFFF" d="M155.292,435.573c-7.079,0-12.837,7.235-12.837,16.137c0,24.732,0,71.612,0.015,96.313
		c0,8.905,5.743,16.127,12.822,16.155c7.079,0,12.805-7.222,12.805-16.123c0-24.686,0-71.626,0.015-96.358
		C168.112,442.809,162.371,435.573,155.292,435.573L155.292,435.573z M155.292,435.573"/>
	<path fill="#FFFFFF" d="M313.126,289.515c-23.617,0-42.777,21.667-42.777,48.375c0,80.972,0.015,243.025,0.029,323.969
		c0,26.707,19.131,48.375,42.751,48.375c23.618,0,42.777-21.682,42.777-48.375V538.891h311.157v122.981
		c0,26.694,19.159,48.361,42.781,48.361c23.617,0,42.751-21.682,42.751-48.375V337.889c0-26.721-19.135-48.375-42.751-48.375
		c-23.618,0-42.781,21.639-42.781,48.375v122.964H355.906V337.876C355.906,311.154,336.762,289.515,313.126,289.515L313.126,289.515
		z M313.126,289.515"/>
	<path fill="#FFFFFF" d="M809.246,354.133h-4.187c-17.796,0-32.239,14.4-32.239,32.22v227.038c0,17.806,14.443,32.253,32.249,32.253
		h4.188c17.806,0,32.249-14.4,32.249-32.224c0-56.065,0-170.955-0.011-227.038C841.51,368.561,827.053,354.133,809.246,354.133
		L809.246,354.133z M809.246,354.133"/>
	<path fill="#FFFFFF" d="M220.092,354.133h-4.202c-17.806,0-32.238,14.4-32.238,32.22v227.038c0,17.823,14.432,32.253,32.238,32.253
		h4.187c17.806,0,32.238-14.4,32.238-32.224V386.381C252.33,368.561,237.898,354.133,220.092,354.133L220.092,354.133z
		 M220.092,354.133"/>
</g>
</svg>
