<?xml version="1.0" encoding="utf-8"?>
<!-- Generator: Adobe Illustrator 17.0.0, SVG Export Plug-In . SVG Version: 6.00 Build 0)  -->
<!DOCTYPE svg PUBLIC "-//W3C//DTD SVG 1.1//EN" "http://www.w3.org/Graphics/SVG/1.1/DTD/svg11.dtd">
<svg version="1.1" id="图形" xmlns="http://www.w3.org/2000/svg" xmlns:xlink="http://www.w3.org/1999/xlink" x="0px" y="0px"
	 width="1000.636px" height="1000.678px" viewBox="15.167 -16.333 1000.636 1000.678"
	 enable-background="new 15.167 -16.333 1000.636 1000.678" xml:space="preserve">
<g>
	<path fill="#FFFFFF" d="M617.356,684.878V435.592l146.816-23.804C740.786,287.85,632.02,194.085,501.286,194.085
		c-147.801,0-267.61,119.808-267.61,267.609s119.809,267.605,267.61,267.605c14.336,0,28.394-1.16,42.113-3.324
		c10.742-17.832,30.016-32.144,54.484-38.265C604.348,686.104,610.876,685.155,617.356,684.878L617.356,684.878z M550.454,215.924
		l-28.672,125.618H493.11l-20.481-125.618C502.669,200.901,550.454,215.924,550.454,215.924L550.454,215.924z M501.286,561.046
		c-54.871,0-99.352-44.481-99.352-99.352s44.481-99.352,99.352-99.352s99.351,44.481,99.351,99.352S556.157,561.046,501.286,561.046
		L501.286,561.046z M501.286,385.94c-41.782,0-75.754,33.973-75.754,75.754c0,41.777,33.972,75.75,75.754,75.75
		c41.777,0,75.75-33.973,75.75-75.75C577.036,419.913,543.063,385.94,501.286,385.94L501.286,385.94z M501.286,515.799
		c-29.836,0-54.11-24.269-54.11-54.105c0-29.836,24.282-54.109,54.11-54.109c29.843,0,54.097,24.273,54.097,54.109
		C555.383,491.53,531.129,515.799,501.286,515.799L501.286,515.799z M535.551,772.135c1.305,7.196,4.153,13.879,8.258,19.883
		c-13.933,1.785-28.105,2.813-42.515,2.813c-183.7,0-333.145-149.45-333.145-333.137c0-183.691,149.445-333.137,333.137-333.137
		c163.051,0,299.039,117.801,327.547,272.746l-32.34,5.25c-25.977-139.371-148.422-245.226-295.207-245.226
		c-165.625,0-300.367,134.742-300.367,300.367s134.742,300.367,300.367,300.367c11.09,0,22.027-0.648,32.816-1.828
		C534.2,764.19,534.626,768.163,535.551,772.135L535.551,772.135z M862.821,419.268V708.1c0,23.922-17.832,43-45.645,50.028
		c-30.539,7.57-60.023-5.219-65.871-28.622c-5.859-23.453,14.141-48.593,44.672-56.238c13.793-3.406,27.375-2.711,38.738,1.293
		V500.549l-156.148,28.54l-0.719,216.48h-0.035c-0.137,20.496-18.621,40.625-45.211,47.203
		c-30.172,7.594-61.785-6.766-65.176-28.254c-5.8-23.183,13.977-48.078,44.215-55.648c13.606-3.383,26.903-2.703,38.074,1.215
		V453.831L862.821,419.268L862.821,419.268z M862.821,419.268"/>
</g>
</svg>
