<?xml version="1.0" encoding="utf-8"?>
<!-- Generator: Adobe Illustrator 17.0.0, SVG Export Plug-In . SVG Version: 6.00 Build 0)  -->
<!DOCTYPE svg PUBLIC "-//W3C//DTD SVG 1.1//EN" "http://www.w3.org/Graphics/SVG/1.1/DTD/svg11.dtd">
<svg version="1.1" id="图形" xmlns="http://www.w3.org/2000/svg" xmlns:xlink="http://www.w3.org/1999/xlink" x="0px" y="0px"
	 width="1000.636px" height="1000.678px" viewBox="15.167 -16.333 1000.636 1000.678"
	 enable-background="new 15.167 -16.333 1000.636 1000.678" xml:space="preserve">
<path fill="#FFFFFF" d="M893.506,344.632c2.972-0.369-0.748-7.81-3.721-13.764c-2.972-5.945-7.071-6.698-14.889-11.169
	c-7.81-4.468-14.512-4.468-14.512-4.468c-3.711,0-12.646-0.356-7.062-5.198c5.567-4.842,6.315-13.403,6.315-13.403
	c-2.225-13.016-6.693-4.081-7.81-1.478c-1.117,2.604-2.603,5.576-5.954,7.063c-3.342,1.495-12.638,7.449-12.638,7.449
	c-5.224-0.378-11.169,0.747-18.988,2.22c-7.81,1.5-24.555,4.473-33.491,5.959c-8.935,1.486-23.447,0-36.841,0.378
	c-13.386,0.361-20.826,4.081-32.734,2.603c-11.917-1.495-44.661-15.633-56.191-22.326c-11.53-6.697-8.927-7.445-15.629-8.562
	c-6.693-1.112-10.043,2.234-20.456-3.351c-10.431-5.576-12.665-1.477-24.195-2.972c-11.539-1.495-19.348-1.117-29.77-7.819
	c-10.422-6.693-4.099-17.484-4.099-17.484c9.693-8.944,2.234-18.61,4.099-24.186c1.864-5.584,3.72-21.582,0-32.365
	c-3.72-10.8-20.835-20.853-31.248-20.474c-10.422,0.37-26.05,0.748-39.814,21.574c-13.764,20.853-7.08,33.87-7.08,35.365
	c0,1.477,1.486,11.143,1.486,11.143c-2.603,5.593,3.72,26.807,3.72,26.807c-5.206-0.747-19.331,3.712-24.933,5.585
	c-5.567,1.856-17.106,6.693-22.682,7.801c-5.584,1.126-10.43,7.449-15.637,12.286c-5.206,4.837-13.025,16.376-13.025,16.376
	c-8.179-0.378-14.142,13.764-23.06,18.601c-8.935,4.837-21.582,12.656-31.995,18.232c-10.431,5.585-25.312,18.601-34.977,26.419
	c-9.683,7.81-25.681,25.303-31.645,27.906c-5.945,2.612-7.818,1.865-17.484,1.865c-9.665,0-11.161,12.638-11.161,12.638
	c-4.467,1.495-4.845,9.314-4.845,9.314c-4.829,2.972-1.856,8.188-1.856,8.188c-4.837,2.603-4.837,8.179-4.837,8.179
	c3.342,4.846,20.835,1.117,20.835,1.117c7.818,1.495,24.573-7.441,27.167-11.908c2.603-4.451,12.286-11.161,18.609-15.242
	c6.324-4.098,27.906-20.474,36.843-23.447c8.918-2.981,27.149-8.571,32.356-15.637c5.215-7.071,20.484-10.791,20.484-10.791
	c1.837,1.869,11.899,2.972,11.899,2.972c3.351-4.45,30.51-14.133,30.51-14.133c13.403,8.188-0.379,35.734-0.739,48.751
	c-0.37,13.016-7.08,21.582-10.431,27.528c-3.351,5.962-9.296,22.33-13.007,29.022c-3.729,6.711-4.107,6.711-16.017,14.512
	c-11.89,7.818-34.22,36.842-39.057,50.245c-4.846,13.395-10.422,25.672-16.368,30.501c-5.972,4.846-10.44,16.006-16.016,26.798
	c-5.576,10.791,6.702,12.272,6.702,12.272l-3.36,14.147c0,0,1.514,1.117-4.828-2.981c-6.324-4.099-13.403-4.829-24.916-4.459
	c-11.548,0.36-22.709,7.071-33.131,7.44c-10.413,0.37,0.739-2.981-11.908-11.169c-12.656-8.179-28.275,4.089-33.491,8.188
	c-5.206,4.098-12.647,6.332-20.456,10.043c-7.819,3.729-20.835,8.936-28.654,15.259c-7.818,6.333-24.573,23.817-10.791,35.356
	c13.764,11.539,33.121-2.242,41.301-6.332c8.188-4.089,22.33-7.071,33.122-10.043c10.782-2.982,14.502-2.234,28.644,1.864
	c14.142,4.09,33.491,9.666,40.184,9.305c6.693-0.387,30.527,8.927,30.527,8.927c39.797,6.693,63.244-55.822,66.226-52.84
	c2.973,2.967,14.503,5.962,18.232,5.962c3.711,0,8.557-8.566,7.81-6.71c-0.748,1.864,1.495,7.062,1.495,7.062s6.323-0.73,0.378,7.09
	c-5.973,7.801,29.392,5.576,29.392,5.576c4.09,5.567,1.099,37.58-1.117,40.553c-2.234,2.981-8.566,10.421-15.259,10.791
	c-6.701,0.378-34.977,30.509-40.193,35.724c-5.189,5.216-13.007,20.096-16.736,24.555c-3.09,3.703-17.448,16.376-22.25,20.583
	c-8.16-6.044-18.258-9.638-29.203-9.638c-27.122,0-49.11,21.996-49.11,49.12c0,27.131,21.988,49.119,49.11,49.119
	c13.269,0,25.294-5.26,34.122-13.818c3.242,0.351,7.098,0.703,11.746,1.009c27.915,1.855,24.555-8.188,24.555-8.188
	c-2.234-8.188-15.998-7.819-23.438-13.386c-0.036-0.027-0.064-0.063-0.09-0.081c1.45-4.63,2.217-9.539,2.217-14.655
	c0-5.387-0.865-10.558-2.468-15.395c2.945-0.234,5.161-3.54,9.278-5.593c4.45-2.243,13.025-0.37,21.943-3.721
	c8.936-3.359,50.606-38.706,54.695-42.427c4.099-3.725,11.539-13.394,16.755-18.979c5.207-5.576,5.207-13.764,23.06-26.785
	c17.871-13.03,15.259-26.794,15.259-26.794c9.314-7.449,16.376-35.346,16.376-35.346l1.856-0.748
	c9.683-19.718,8.935-63.253,9.314-69.585c0.369-6.324,1.477-10.044,1.108-18.232c-0.37-8.17-9.305-33.86-5.954-36.842
	c3.35-2.973,16.006-44.643,19.726-51.705c3.729-7.071,10.413-26.05,15.251-38.715c4.837-12.639,12.655-44.643,17.862-53.948
	c5.206-9.296,3.342-8.922,18.97-10.791c15.637-1.856,43.165,3.72,43.165,3.72l1.873-1.252c0.045-0.018,0.433-0.28,1.478-0.973
	c3.351-2.243,0,0,19.727,4.45c19.726,4.477,64.748-2.972,76.278-4.45c11.53-1.495,22.33-7.071,33.491-9.305
	c11.169-2.234,26.05-6.701,26.05-6.701v-2.973c4.089,1.856,12.647-0.748,19.709,2.973c7.071,3.72,14.889,16.38,14.889,16.38
	c11.539,8.922,1.117-16.75,1.117-16.75c1.856-2.234,17.485,10.413,17.485,10.413c3.35,3.342,8.945,0.378,8.945,0.378
	C906.901,356.172,893.506,344.632,893.506,344.632z"/>
</svg>
