<?xml version="1.0" encoding="utf-8"?>
<!-- Generator: Adobe Illustrator 17.0.0, SVG Export Plug-In . SVG Version: 6.00 Build 0)  -->
<!DOCTYPE svg PUBLIC "-//W3C//DTD SVG 1.1//EN" "http://www.w3.org/Graphics/SVG/1.1/DTD/svg11.dtd">
<svg version="1.1" id="图形" xmlns="http://www.w3.org/2000/svg" xmlns:xlink="http://www.w3.org/1999/xlink" x="0px" y="0px"
	 width="1000.636px" height="1000.678px" viewBox="15.167 -16.333 1000.636 1000.678"
	 enable-background="new 15.167 -16.333 1000.636 1000.678" xml:space="preserve">
<g>
	<path fill="#FFFFFF" d="M568.29,71.277h-12.988h-5.727l0.274-6.332l0.047-1.129c0.035-0.598,0.074-1.188,0.074-1.805
		c0-30.308-22.274-54.953-49.652-54.953c-27.387,0-49.649,24.648-49.649,54.953c0,0.543,0.039,1.086,0.074,1.606l0.067,1.328
		l0.254,6.332h-5.723h-13c-33.539,0-60.836,30.207-60.836,67.351c0,37.149,27.297,67.36,60.836,67.36H568.29
		c33.559,0,60.86-30.211,60.86-67.36C629.15,101.484,601.853,71.277,568.29,71.277L568.29,71.277z M500.318,75.87
		c-13.536,0-24.532-12.195-24.532-27.167c0-14.989,10.996-27.18,24.532-27.18c13.539,0,24.55,12.187,24.55,27.18
		C524.872,63.675,513.857,75.87,500.318,75.87L500.318,75.87z M733.798,123.046h-53.891c0.868,5.055,1.379,10.254,1.379,15.582
		c0,46.563-20.519,108.645-112.996,108.903H432.341c-89.187-0.258-112.961-62.332-112.961-108.903
		c0-5.324,0.496-10.527,1.356-15.582h-53.864c-22.652,0-40.988,20.305-40.988,45.321v599.777c0,25.031,18.34,45.328,40.988,45.328
		h466.922c22.629,0,40.957-20.297,40.957-45.328V168.367C774.759,143.351,756.431,123.046,733.798,123.046L733.798,123.046z
		 M698.036,714.878H302.614v-401.59h395.422V714.878L698.036,714.878L698.036,714.878z M624.962,570.277h-69.039v69.011H452.384
		v-69.011h-69.043V466.706h69.043v-69.019l103.539,0.012v69.007h69.039V570.277L624.962,570.277L624.962,570.277z M624.962,570.277"
		/>
</g>
</svg>
