<?xml version="1.0" encoding="utf-8"?>
<!-- Generator: Adobe Illustrator 17.0.0, SVG Export Plug-In . SVG Version: 6.00 Build 0)  -->
<!DOCTYPE svg PUBLIC "-//W3C//DTD SVG 1.1//EN" "http://www.w3.org/Graphics/SVG/1.1/DTD/svg11.dtd">
<svg version="1.1" id="图形" xmlns="http://www.w3.org/2000/svg" xmlns:xlink="http://www.w3.org/1999/xlink" x="0px" y="0px"
	 width="1000.636px" height="1000.678px" viewBox="15.167 -16.333 1000.636 1000.678"
	 enable-background="new 15.167 -16.333 1000.636 1000.678" xml:space="preserve">
<g>
	<path fill="#FFFFFF" d="M819.833,222.001c-62.563-73.535-165.668-92.137-248.375-51c0.023,6.531,0.539,13.336,1.539,20.344
		c7.32,51.48,38.488,111.039,80.996,162.101c42.395,50.938,95.102,92.223,145.5,107.266c12.711,3.804,25.129,5.84,36.984,5.789
		C884.079,392.22,879.981,292.677,819.833,222.001L819.833,222.001z M472.169,389.04L153.716,736.153
		c-0.641,36.594,17.796,56.75,53.097,62.391l388.289-260.946C541.485,503.677,495.786,447.829,472.169,389.04L472.169,389.04z
		 M630.434,373.673c-44.875-53.844-79.375-117.067-93.336-175.914c-36.867,45.39-51.851,103.554-43.73,159.406
		c22.562,67.805,81.078,138.008,146.32,167.972c54.707,15.817,115.071,8.747,165.559-22.539
		C742.458,481.805,679.72,432.845,630.434,373.673L630.434,373.673z M630.434,373.673"/>
</g>
</svg>
