<?xml version="1.0" encoding="utf-8"?>
<!-- Generator: Adobe Illustrator 17.0.0, SVG Export Plug-In . SVG Version: 6.00 Build 0)  -->
<!DOCTYPE svg PUBLIC "-//W3C//DTD SVG 1.1//EN" "http://www.w3.org/Graphics/SVG/1.1/DTD/svg11.dtd">
<svg version="1.1" id="图形" xmlns="http://www.w3.org/2000/svg" xmlns:xlink="http://www.w3.org/1999/xlink" x="0px" y="0px"
	 width="1000.636px" height="1000.678px" viewBox="15.167 -16.333 1000.636 1000.678"
	 enable-background="new 15.167 -16.333 1000.636 1000.678" xml:space="preserve">
<g>
	<path fill="#FFFFFF" d="M849.42,556.488c-5.656-3.094-12.582-2.969-18.148,0.379l-122.391,56.441v-32.082
		c0-7.461-1.551-14.57-4.344-21.043c89.27-19.375,156.172-98.734,156.172-193.812c0-109.594-88.84-198.426-198.426-198.426
		c-84.656,0-156.73,53.109-185.234,127.75c-31.078-52.246-87.937-87.367-153.137-87.367c-98.433,0-178.238,79.793-178.238,178.238
		c0,65.133,35.047,121.933,87.195,153.031c-12.32,9.914-20.359,24.789-20.359,41.629v181.586c0,29.789,24.633,54.027,54.926,54.027
		h386.5c30.297,0,54.949-24.238,54.949-54.027v-10.098l122.391,56.457c5.558,3.352,12.484,3.496,18.152,0.36
		c5.68-3.114,9.187-9.008,9.187-15.395v-222.25C858.612,565.515,855.108,559.624,849.42,556.488L849.42,556.488z M321.467,527.207
		c-22.855-1.086-41.055-19.879-40.961-42.977c0.098-23.742,19.488-57.481,43.227-57.371c23.742,0.101,42.863,33.976,42.773,57.73
		c-0.105,23.055-18.379,41.637-41.18,42.618H321.467L321.467,527.207z M661.627,523.164c-26.43-0.106-47.773-21.633-47.664-48.055
		c0.106-26.43,21.691-63.992,48.125-63.871c26.43,0.113,47.715,37.824,47.613,64.269
		C709.584,501.933,688.061,523.269,661.627,523.164L661.627,523.164z M771.389,318.98c26.441,0.102,47.793,21.613,47.687,48.051
		c-0.113,26.426-21.656,47.773-48.082,47.676c-26.429-0.122-63.972-21.875-63.855-48.333
		C707.248,339.945,744.971,318.851,771.389,318.98L771.389,318.98z M662.932,209.597c26.43,0.102,47.785,21.629,47.664,48.078
		c-0.113,26.407-21.617,62.071-48.059,61.949c-26.429-0.113-47.789-35.929-47.687-62.367
		C614.967,230.824,636.49,209.48,662.932,209.597L662.932,209.597z M553.569,318.042c26.414,0.141,64.082,21.879,63.964,48.329
		c-0.113,26.449-37.949,47.531-64.375,47.433c-26.422-0.121-47.777-21.629-47.668-48.07
		C505.588,339.292,527.131,317.945,553.569,318.042L553.569,318.042z M546.381,527.207h-113.25
		c23.074-17.946,41.613-41.368,53.629-68.407C501.108,485.984,521.619,509.332,546.381,527.207L546.381,527.207z M421.916,343.992
		c23.75,0.093,42.93,19.414,42.836,43.164c-0.101,23.742-19.453,42.914-43.191,42.824c-23.746-0.106-57.461-19.648-57.356-43.414
		C364.303,362.824,398.186,343.878,421.916,343.992L421.916,343.992z M324.498,245.738c23.742,0.09,42.918,19.429,42.813,43.187
		c-0.098,23.719-19.418,55.754-43.168,55.645c-23.742-0.102-42.926-32.274-42.836-56.024
		C281.412,264.804,300.744,245.632,324.498,245.738L324.498,245.738z M183.072,385.988c0.09-23.746,19.442-42.926,43.188-42.836
		c23.726,0.125,57.562,19.652,57.457,43.41c-0.105,23.758-34.086,42.691-57.828,42.605
		C202.158,429.062,182.979,409.742,183.072,385.988L183.072,385.988z M183.072,385.988"/>
</g>
</svg>
