<?xml version="1.0" encoding="utf-8"?>
<!-- Generator: Adobe Illustrator 17.0.0, SVG Export Plug-In . SVG Version: 6.00 Build 0)  -->
<!DOCTYPE svg PUBLIC "-//W3C//DTD SVG 1.1//EN" "http://www.w3.org/Graphics/SVG/1.1/DTD/svg11.dtd">
<svg version="1.1" id="图形" xmlns="http://www.w3.org/2000/svg" xmlns:xlink="http://www.w3.org/1999/xlink" x="0px" y="0px"
	 width="1000.636px" height="1000.678px" viewBox="15.167 -16.333 1000.636 1000.678"
	 enable-background="new 15.167 -16.333 1000.636 1000.678" xml:space="preserve">
<g>
	<circle fill="#FFFFFF" cx="512.485" cy="482.145" r="498.478"/>
	<g>
		<path fill="#2FD0B5" d="M829.333,165.525c-174.887-175.633-458.902-175.633-633.795,0c-175.633,174.893-175.633,458.908,0,633.795
			c175.64,174.893,458.908,174.893,634.548,0C1004.972,624.432,1004.972,340.418,829.333,165.525L829.333,165.525z M713.487,651.336
			c8.969,8.97,8.969,23.168,0,31.391c-4.483,4.487-10.464,6.728-15.692,6.728c-5.235,0-11.211-2.241-15.698-6.728L512.438,513.816
			L343.528,682.727c-4.487,4.487-10.464,6.728-15.698,6.728c-5.229,0-11.21-2.241-15.692-6.728c-8.969-8.97-8.969-23.168,0-31.391
			l168.911-168.911L311.391,313.514c-8.97-8.969-8.97-23.174,0-31.391c8.963-8.969,23.168-8.969,31.389,0l169.658,168.911
			l168.911-168.911c8.97-8.969,23.168-8.969,31.391,0c8.97,8.97,8.97,23.168,0,31.391L543.829,482.425L713.487,651.336
			L713.487,651.336z M713.487,651.336"/>
	</g>
</g>
</svg>
